<?xml version="1.0" encoding="utf-8"?>
<!-- Generator: Adobe Illustrator 19.0.0, SVG Export Plug-In . SVG Version: 6.00 Build 0)  -->
<svg version="1.1" id="Ebene_1" xmlns="http://www.w3.org/2000/svg" xmlns:xlink="http://www.w3.org/1999/xlink" x="0px" y="0px"
	 viewBox="0 0 566.9 566.9" style="enable-background:new 0 0 566.9 566.9;" xml:space="preserve">
<style type="text/css">
	.st0{fill:#009FE3;}
	.st1{fill:#E6007E;}
	.st2{fill:#FFED00;}
</style>
<g>
	<g>
		<polygon id="XMLID_504_" points="331.2,188.3 335.4,184.2 335.4,191.5 335.4,192.4 335.3,192.4 334.4,191.5 		"/>
		<polygon id="XMLID_503_" points="445.4,66 456.6,54.9 460.2,51.3 460.2,52.8 466.1,52.8 461.8,57 464.5,59.7 445.4,78.7 425.2,99 
			345.8,178.4 343.5,176.1 393,126.6 389,122.5 395.4,116.1 407.1,116.1 401.2,110.3 412.5,99 432,79.5 434.8,79.5 433.4,78.1 		"/>
		<polygon id="XMLID_502_" points="313.5,226 312.1,226 312.8,225.3 		"/>
		<polygon id="XMLID_501_" points="338.3,212.9 359.8,191.5 367.6,183.7 369.1,185.2 362.8,191.5 336.2,218.1 331.8,222.5 
			331.8,219.2 338.2,212.8 		"/>
		<polygon id="XMLID_500_" points="327.6,226.7 284.8,269.5 284.8,266.3 326,225.1 		"/>
		<polygon id="XMLID_499_" points="444,96.9 445.4,95.4 448.1,92.8 450.8,95.4 449.4,96.9 445.4,96.9 		"/>
		<polygon id="XMLID_498_" points="365.3,172.8 362.6,170.2 370.4,162.4 379.3,162.4 374.9,157.9 395.4,137.4 401.2,143.3 
			401.2,131.6 407.6,125.2 411.7,129.2 435.9,105 438.1,107.3 397,148.4 398,148.4 354.9,191.5 336.2,210.2 336.2,209.2 
			336.2,201.9 346.6,191.5 		"/>
		<polygon id="XMLID_497_" points="373.5,177.8 379.9,171.4 381.4,172.9 373.5,180.9 		"/>
		<polygon id="XMLID_496_" points="445.4,60.2 430.5,75.2 429,73.6 437.4,65.2 437.4,64.3 445.4,56.2 495.1,6.5 499.2,6.5 		"/>
		<polygon id="XMLID_495_" points="289,208.6 280.7,216.8 280.7,212.2 284.4,208.6 		"/>
		<polygon id="XMLID_494_" points="295.7,191.5 280.7,206.5 280.7,191.5 280.7,185.1 307.7,158.1 323.3,158.1 324.4,157 
			325.5,158.1 329.1,158.1 295.7,191.5 		"/>
		<polygon id="XMLID_493_" points="377.9,99 377.9,99 388.2,99 377.9,109.3 		"/>
		<polygon id="XMLID_492_" points="377.9,127.8 373.5,132.1 369.5,128.1 363.1,134.5 363.1,142.8 361.4,144.5 357.2,140.3 
			340.3,157.3 339.5,158.1 306.1,191.5 292.5,205 290.2,202.7 301.5,191.5 301.5,191.5 340.3,152.7 340.3,151.9 386.7,105.5 
			390.8,101.4 390.8,103.8 401.9,103.8 		"/>
		<polygon id="XMLID_491_" points="401.3,95.5 399,93.2 445.4,46.8 448.5,43.7 445.4,40.6 444.5,39.7 445.4,38.7 450.9,33.3 
			462.6,33.3 456.7,27.4 477.6,6.5 490.3,6.5 445.4,51.4 		"/>
		<polygon id="XMLID_490_" points="423.1,79.5 426.2,79.5 418.3,87.4 416.7,85.9 		"/>
		<polygon id="XMLID_489_" points="442.8,35.5 442.8,29.4 445.4,26.8 449.2,23 452.3,26.1 445.4,32.9 		"/>
		<polygon id="XMLID_488_" points="418.6,53.7 418.6,63.3 413.8,58.5 		"/>
		<polygon id="XMLID_487_" points="429,49.3 426,46.2 437,35.3 440,38.3 433.4,45 		"/>
		<polygon id="XMLID_486_" points="284.8,332.1 331.2,285.7 335.4,281.5 335.4,284 336.2,284 346.6,284 336.2,294.3 336.2,288.8 
			307.6,317.4 310.4,320.2 307.3,323.3 301.8,323.3 295.4,329.7 298.1,332.4 284.8,345.8 		"/>
		<polygon id="XMLID_485_" points="389,219.8 395.4,213.4 407.1,213.4 401.2,207.6 417.3,191.5 432,176.8 434.8,176.8 433.4,175.4 
			445.4,163.3 456.6,152.2 460.2,148.6 460.2,150.1 466.1,150.1 461.8,154.3 463.9,156.4 470.2,150.1 471.4,150.1 464.5,157 
			445.4,176 430,191.5 345.8,275.7 343.5,273.4 393,223.9 		"/>
		<polygon id="XMLID_484_" points="452,191.5 445.4,198.1 418.6,224.9 419.6,225.9 418.6,227 418.6,230.8 412.7,230.8 406.3,237.2 
			407.4,238.2 395,250.6 336.2,309.3 336.2,299.2 365.3,270.1 361.2,266.1 367.6,259.7 379.3,259.7 373.5,253.8 376.7,250.6 
			378.8,250.6 379.9,249.4 381,250.6 386.9,250.6 433.4,204.1 433.4,193 434.8,191.5 445.4,180.9 477.9,148.4 495.1,148.4 		"/>
		<polygon id="XMLID_483_" points="313.5,323.3 312.1,323.3 312.8,322.6 		"/>
		<polygon id="XMLID_482_" points="327.6,324 284.8,366.9 284.8,363.6 326,322.4 		"/>
		<polygon id="XMLID_481_" points="339.9,311.8 331.8,319.8 331.8,316.5 338.2,310.1 		"/>
		<polygon id="XMLID_480_" points="445.4,157.5 430.5,172.5 429,170.9 445.4,154.5 488.1,111.8 491.2,111.8 		"/>
		<polygon id="XMLID_479_" points="490.3,103.8 445.4,148.7 402.6,191.5 401.3,192.8 400,191.5 399,190.5 445.4,144.1 448.5,141 
			445.4,137.9 444.5,137 445.4,136 450.9,130.6 462.6,130.6 456.7,124.7 477.6,103.8 		"/>
		<polygon id="XMLID_478_" points="445.4,130.2 442.8,132.8 442.8,126.7 445.4,124.1 449.2,120.3 452.3,123.4 		"/>
		<polygon id="XMLID_477_" points="289,305.9 280.7,314.2 280.7,309.6 284.4,305.9 		"/>
		<polygon id="XMLID_476_" points="349.2,241.1 349.2,242.6 352.3,242.6 292.5,302.3 290.2,300 317.9,272.3 318,272.4 318,272.3 
			345.6,244.7 		"/>
		<polygon id="XMLID_475_" points="377.9,206.6 377.9,196.3 388.2,196.3 		"/>
		<polygon id="XMLID_474_" points="331.8,231 331.8,228.3 336.2,223.9 339.9,220.3 343.6,224 345.7,226.1 345.7,221.8 345.7,214.4 
			352.1,208 355.8,211.7 356.2,212.1 371.9,196.3 376.5,196.3 280.7,292.1 280.7,279.4 330.5,229.6 		"/>
		<polygon id="XMLID_473_" points="318,260.7 324.4,254.3 327.3,257.2 318,266.5 		"/>
		<polygon id="XMLID_472_" points="315,269.5 280.7,303.8 280.7,297.9 312.1,266.5 		"/>
		<polygon id="XMLID_471_" points="423.1,176.8 426.2,176.8 418.3,184.7 416.7,183.2 		"/>
		
			<rect id="XMLID_470_" x="430.9" y="131.8" transform="matrix(0.7071 0.7071 -0.7071 0.7071 225.5327 -265.2998)" width="4.3" height="15.5"/>
		<polygon id="XMLID_469_" points="413.8,155.8 418.6,151 418.6,160.7 		"/>
		<polygon id="XMLID_468_" points="284.8,443.1 284.8,429.4 331.2,383 335.4,378.9 335.4,381.3 336.2,381.3 339.5,381.3 341,381.3 
			307.6,414.7 310.4,417.5 307.3,420.6 301.8,420.6 295.4,427 298.1,429.7 		"/>
		<polygon id="XMLID_467_" points="346.6,381.3 336.2,391.6 336.2,390.4 345.3,381.3 		"/>
		<polygon id="XMLID_466_" points="445.4,270.8 448.1,268.1 448.8,268.8 470.2,247.4 471.4,247.4 445.4,273.4 401.2,317.6 
			401.2,310.7 407.1,310.7 402.2,305.9 407.6,300.5 411.7,304.6 435.9,280.4 436.5,281 445.3,272.2 444,272.2 		"/>
		<polygon id="XMLID_465_" points="395.4,312.8 400.7,318.1 345.8,373 343.5,370.7 393,321.2 390,318.1 		"/>
		<polygon id="XMLID_464_" points="445.4,295.4 418.6,322.2 419.6,323.3 418.6,324.3 418.6,328.1 412.7,328.1 406.3,334.5 
			407.4,335.5 336.2,406.6 336.2,396.5 365.3,367.4 362.2,364.4 367.6,359 373.5,364.9 373.5,357 379.3,357 374.5,352.1 
			379.9,346.7 383.9,350.8 433.4,301.4 433.4,290.3 445.4,278.2 477.9,245.7 495.1,245.7 		"/>
		<polygon id="XMLID_463_" points="312.1,420.6 312.8,419.9 313.5,420.6 		"/>
		<polygon id="XMLID_462_" points="449.2,217.6 451.9,220.3 445.4,226.7 442.8,229.3 442.8,224.7 445.4,222.1 448.5,219.1 
			448.2,218.7 		"/>
		<polygon id="XMLID_461_" points="289,403.2 280.7,411.5 280.7,406.9 284.4,403.2 		"/>
		<polygon id="XMLID_460_" points="331.8,328.3 331.8,325.6 339.9,317.6 345.7,323.4 345.7,311.7 352.1,305.3 356.2,309.4 
			371.9,293.6 376.5,293.6 341.5,328.6 342.5,328.6 280.7,390.4 280.7,389.4 280.7,376.7 330.5,326.9 		"/>
		<polygon id="XMLID_459_" points="315,366.8 280.7,401.1 280.7,395.2 312.1,363.8 		"/>
		<polygon id="XMLID_458_" points="377.9,303.9 377.9,293.6 388.2,293.6 		"/>
		<polygon id="XMLID_457_" points="318,358 324.4,351.6 327.3,354.5 318,363.8 		"/>
		<polygon id="XMLID_456_" points="390.8,276.7 390.8,284.9 386.7,280.8 		"/>
		
			<rect id="XMLID_455_" x="392.2" y="248.9" transform="matrix(-0.7071 0.7071 -0.7071 -0.7071 892.981 131.2372)" width="54.2" height="3.3"/>
		<polygon id="XMLID_454_" points="420.8,265.3 416.7,261.2 423.1,254.8 434.8,254.8 429,249 437.4,240.6 437.4,239.6 442,235 
			442.8,235.8 442.8,234.2 445.4,231.6 475.9,201.1 493.1,201.1 474.1,220.1 477.1,223.2 474.3,226 468.2,226 461.8,232.4 
			464.9,235.4 445.4,254.9 377.9,322.4 373.5,326.8 369.5,322.7 363.1,329.1 363.1,339.2 362.3,340 357.2,335 340.3,351.9 
			292.5,399.7 290.2,397.4 317.9,369.7 318,369.7 318,369.6 340.3,347.3 340.3,345.8 		"/>
		<polygon id="XMLID_453_" points="312.8,517.2 329.1,500.9 331.8,503.6 331.8,498.2 336.2,493.8 365.3,464.7 362.2,461.7 
			367.6,456.3 373.5,462.2 373.5,454.3 379.3,454.3 374.5,449.4 379.9,444.1 383.9,448.1 433.4,398.7 433.4,389.3 445.4,389.3 
			448.1,389.3 449.2,388.2 449.6,388.6 445.4,392.7 442.8,395.3 437.3,400.8 418.6,419.6 419.6,420.6 418.6,421.6 418.6,425.4 
			412.7,425.4 406.3,431.8 407.4,432.8 371.2,469 377.3,469 284.8,561.5 284.8,561.5 284.8,561.5 284.8,545.2 312.1,517.9 		"/>
		<polygon id="XMLID_452_" points="390,415.4 395.4,410.1 400.7,415.4 345.8,470.3 343.5,468 393,418.5 		"/>
		<polygon id="XMLID_451_" points="401.2,414.9 401.2,408 407.1,408 402.2,403.2 407.6,397.8 411.7,401.9 435.9,377.7 436.5,378.4 
			445.3,369.5 444,369.5 445.4,368.1 448.1,365.4 448.8,366.1 470.2,344.7 471.4,344.7 445.4,370.7 		"/>
		<polygon id="XMLID_450_" points="336.2,481.8 336.2,478.6 340.5,478.6 338.3,480.8 338.6,481 331.8,487.8 326.4,493.3 307.6,512 
			309.7,514.1 326,497.7 326.7,498.5 310.4,514.8 307.3,517.9 298.1,527.1 284.8,540.4 284.8,526.7 329.7,481.8 		"/>
		<polygon id="XMLID_449_" points="336.2,488.9 331.8,493.3 331.8,491.9 338.2,485.5 338.3,485.6 345.3,478.6 346.6,478.6 		"/>
		<polygon id="XMLID_448_" points="390.8,374.3 390.5,374.3 390.8,374 		"/>
		<polygon id="XMLID_447_" points="331.2,437.2 280.7,487.7 280.7,486.7 280.7,482.1 325.7,437.2 		"/>
		<polygon id="XMLID_446_" points="381.4,383.5 382.7,384.8 341.5,425.9 342.5,425.9 340.3,428.1 340.3,424.6 344.9,420 
			345.7,420.8 345.7,419.2 		"/>
		<polygon id="XMLID_445_" points="289,500.5 280.7,508.8 280.7,504.2 284.4,500.5 		"/>
		<polygon id="XMLID_444_" points="315,464.1 280.7,498.4 280.7,492.5 312.1,461.1 		"/>
		<polygon id="XMLID_443_" points="318,455.3 324.4,448.9 327.3,451.8 318,461.1 		"/>
		<polygon id="XMLID_442_" points="340.3,443.1 420.8,362.6 419.8,361.6 429.2,352.2 434.8,352.2 432,349.3 436.7,344.7 
			445.4,344.7 452.9,344.7 445.4,352.2 373.5,424.1 369.5,420 363.1,426.4 363.1,436.5 362.3,437.3 357.2,432.3 340.3,449.2 
			292.5,497 290.2,494.7 317.9,467 318,467 318,466.9 340.3,444.6 		"/>
	</g>
	<g>
		<polygon id="XMLID_441_" points="230.2,188.3 226.1,184.2 226.1,191.5 226.1,192.4 226.2,192.4 227.1,191.5 		"/>
		<polygon id="XMLID_440_" points="116,66 104.9,54.9 101.3,51.3 101.3,52.8 95.4,52.8 99.6,57 97,59.7 116,78.7 136.3,99 
			215.7,178.4 218,176.1 168.5,126.6 172.5,122.5 166.1,116.1 154.4,116.1 160.2,110.3 149,99 129.5,79.5 126.6,79.5 128.1,78.1 		
			"/>
		<polygon id="XMLID_439_" points="248,226 249.4,226 248.7,225.3 		"/>
		<polygon id="XMLID_438_" points="223.1,212.9 201.7,191.5 193.9,183.7 192.3,185.2 198.6,191.5 225.2,218.1 229.6,222.5 
			229.6,219.2 223.2,212.8 		"/>
		<polygon id="XMLID_437_" points="233.9,226.7 276.7,269.5 276.7,266.3 235.5,225.1 		"/>
		<polygon id="XMLID_436_" points="117.5,96.9 116,95.4 113.4,92.8 110.7,95.4 112.1,96.9 116,96.9 		"/>
		<polygon id="XMLID_435_" points="196.2,172.8 198.9,170.2 191.1,162.4 182.1,162.4 186.6,157.9 166.1,137.4 160.3,143.3 
			160.3,131.6 153.9,125.2 149.8,129.2 125.6,105 123.3,107.3 164.4,148.4 163.5,148.4 206.6,191.5 225.2,210.2 225.2,209.2 
			225.2,201.9 214.9,191.5 		"/>
		<polygon id="XMLID_434_" points="188,177.8 181.6,171.4 180.1,172.9 188,180.9 		"/>
		<polygon id="XMLID_433_" points="116,60.2 131,75.2 132.5,73.6 124.1,65.2 124.1,64.3 116,56.2 66.3,6.5 62.3,6.5 		"/>
		<polygon id="XMLID_432_" points="272.5,208.6 280.7,216.8 280.7,212.2 277.1,208.6 		"/>
		<polygon id="XMLID_431_" points="265.8,191.5 280.7,206.5 280.7,191.5 280.7,185.1 253.7,158.1 238.2,158.1 237.1,157 236,158.1 
			232.4,158.1 265.8,191.5 		"/>
		<polygon id="XMLID_430_" points="183.6,99 183.6,99 173.3,99 183.6,109.3 		"/>
		<polygon id="XMLID_429_" points="183.6,127.8 187.9,132.1 192,128.1 198.4,134.5 198.4,142.8 200.1,144.5 204.2,140.3 
			221.2,157.3 222,158.1 255.4,191.5 268.9,205 271.2,202.7 260,191.5 260,191.5 221.2,152.7 221.2,151.9 174.7,105.5 170.6,101.4 
			170.6,103.8 159.6,103.8 		"/>
		<polygon id="XMLID_428_" points="160.2,95.5 162.5,93.2 116,46.8 113,43.7 116,40.6 117,39.7 116,38.7 110.6,33.3 98.9,33.3 
			104.7,27.4 83.9,6.5 71.2,6.5 116,51.4 		"/>
		<polygon id="XMLID_427_" points="138.4,79.5 135.3,79.5 143.2,87.4 144.8,85.9 		"/>
		<polygon id="XMLID_426_" points="118.6,35.5 118.6,29.4 116,26.8 112.2,23 109.2,26.1 116,32.9 		"/>
		<polygon id="XMLID_425_" points="142.9,53.7 142.9,63.3 147.7,58.5 		"/>
		<polygon id="XMLID_424_" points="132.4,49.3 135.5,46.2 124.5,35.3 121.5,38.3 128.1,45 		"/>
		<polygon id="XMLID_423_" points="276.7,332.1 230.2,285.7 226.1,281.5 226.1,284 225.2,284 214.9,284 225.2,294.3 225.2,288.8 
			253.9,317.4 251.1,320.2 254.2,323.3 259.7,323.3 266.1,329.7 263.4,332.4 276.7,345.8 		"/>
		<polygon id="XMLID_422_" points="172.5,219.8 166.1,213.4 154.4,213.4 160.2,207.6 144.2,191.5 129.5,176.8 126.6,176.8 
			128.1,175.4 116,163.3 104.9,152.2 101.3,148.6 101.3,150.1 95.4,150.1 99.6,154.3 97.6,156.4 91.3,150.1 90.1,150.1 97,157 
			116,176 131.5,191.5 215.7,275.7 218,273.4 168.5,223.9 		"/>
		<polygon id="XMLID_421_" points="109.4,191.5 116,198.1 142.9,224.9 141.9,225.9 142.9,227 142.9,230.8 148.7,230.8 155.1,237.2 
			154.1,238.2 166.5,250.6 225.2,309.3 225.2,299.2 196.2,270.1 200.3,266.1 193.8,259.7 182.1,259.7 188,253.8 184.7,250.6 
			182.7,250.6 181.6,249.4 180.5,250.6 174.6,250.6 128.1,204.1 128.1,193 126.6,191.5 116,180.9 83.6,148.4 66.4,148.4 		"/>
		<polygon id="XMLID_420_" points="248,323.3 249.4,323.3 248.7,322.6 		"/>
		<polygon id="XMLID_419_" points="233.9,324 276.7,366.9 276.7,363.6 235.5,322.4 		"/>
		<polygon id="XMLID_418_" points="221.6,311.8 229.6,319.8 229.6,316.5 223.2,310.1 		"/>
		<polygon id="XMLID_417_" points="116,157.5 131,172.5 132.5,170.9 116,154.5 73.4,111.8 70.3,111.8 		"/>
		<polygon id="XMLID_416_" points="71.2,103.8 116,148.7 158.9,191.5 160.2,192.8 161.5,191.5 162.5,190.5 116,144.1 113,141 
			116,137.9 117,137 116,136 110.6,130.6 98.9,130.6 104.7,124.7 83.9,103.8 		"/>
		<polygon id="XMLID_415_" points="116,130.2 118.6,132.8 118.6,126.7 116,124.1 112.2,120.3 109.2,123.4 		"/>
		<polygon id="XMLID_414_" points="272.5,305.9 280.7,314.2 280.7,309.6 277.1,305.9 		"/>
		<polygon id="XMLID_413_" points="212.2,241.1 212.2,242.6 209.2,242.6 268.9,302.3 271.2,300 243.5,272.3 243.5,272.4 
			243.5,272.3 215.9,244.7 		"/>
		<polygon id="XMLID_412_" points="183.6,206.6 183.6,196.3 173.3,196.3 		"/>
		<polygon id="XMLID_411_" points="229.6,231 229.6,228.3 225.2,223.9 221.6,220.3 217.9,224 215.8,226.1 215.8,221.8 215.8,214.4 
			209.4,208 205.7,211.7 205.3,212.1 189.6,196.3 185,196.3 280.7,292.1 280.7,279.4 231,229.6 		"/>
		<polygon id="XMLID_410_" points="243.5,260.7 237.1,254.3 234.2,257.2 243.5,266.5 		"/>
		<polygon id="XMLID_409_" points="246.4,269.5 280.7,303.8 280.7,297.9 249.4,266.5 		"/>
		<polygon id="XMLID_408_" points="138.4,176.8 135.3,176.8 143.2,184.7 144.8,183.2 		"/>
		
			<rect id="XMLID_407_" x="126.3" y="131.8" transform="matrix(-0.7071 0.7071 -0.7071 -0.7071 318.0062 147.4618)" width="4.3" height="15.5"/>
		<polygon id="XMLID_406_" points="147.7,155.8 142.9,151 142.9,160.7 		"/>
		<polygon id="XMLID_405_" points="276.7,443.1 276.7,429.4 230.2,383 226.1,378.9 226.1,381.3 225.2,381.3 222,381.3 220.4,381.3 
			253.9,414.7 251.1,417.5 254.2,420.6 259.7,420.6 266.1,427 263.4,429.7 		"/>
		<polygon id="XMLID_404_" points="214.9,381.3 225.2,391.6 225.2,390.4 216.2,381.3 		"/>
		<polygon id="XMLID_403_" points="116,270.8 113.4,268.1 112.7,268.8 91.3,247.4 90.1,247.4 116,273.4 160.3,317.6 160.3,310.7 
			154.4,310.7 159.2,305.9 153.9,300.5 149.8,304.6 125.6,280.4 125,281 116.1,272.2 117.5,272.2 		"/>
		<polygon id="XMLID_402_" points="166.1,312.8 160.8,318.1 215.7,373 218,370.7 168.5,321.2 171.5,318.1 		"/>
		<polygon id="XMLID_401_" points="116,295.4 142.9,322.2 141.9,323.3 142.9,324.3 142.9,328.1 148.7,328.1 155.1,334.5 
			154.1,335.5 225.2,406.6 225.2,396.5 196.2,367.4 199.2,364.4 193.9,359 188,364.9 188,357 182.1,357 187,352.1 181.6,346.7 
			177.6,350.8 128.1,301.4 128.1,290.3 116,278.2 83.6,245.7 66.4,245.7 		"/>
		<polygon id="XMLID_400_" points="249.4,420.6 248.7,419.9 248,420.6 		"/>
		<polygon id="XMLID_399_" points="112.2,217.6 109.6,220.3 116,226.7 118.6,229.3 118.6,224.7 116,222.1 113,219.1 113.3,218.7 		
			"/>
		<polygon id="XMLID_398_" points="272.5,403.2 280.7,411.5 280.7,406.9 277.1,403.2 		"/>
		<polygon id="XMLID_397_" points="229.6,328.3 229.6,325.6 221.6,317.6 215.8,323.4 215.8,311.7 209.4,305.3 205.3,309.4 
			189.6,293.6 185,293.6 219.9,328.6 219,328.6 280.7,390.4 280.7,389.4 280.7,376.7 231,326.9 		"/>
		<polygon id="XMLID_396_" points="246.4,366.8 280.7,401.1 280.7,395.2 249.4,363.8 		"/>
		<polygon id="XMLID_395_" points="183.6,303.9 183.6,293.6 173.3,293.6 		"/>
		<polygon id="XMLID_394_" points="243.5,358 237.1,351.6 234.2,354.5 243.5,363.8 		"/>
		<polygon id="XMLID_393_" points="170.6,276.7 170.6,284.9 174.7,280.8 		"/>
		
			<rect id="XMLID_392_" x="115.1" y="248.9" transform="matrix(0.7071 0.7071 -0.7071 0.7071 218.8123 -27.1374)" width="54.2" height="3.3"/>
		<polygon id="XMLID_391_" points="140.7,265.3 144.8,261.2 138.4,254.8 126.6,254.8 132.5,249 124.1,240.6 124.1,239.6 119.4,235 
			118.6,235.8 118.6,234.2 116,231.6 85.6,201.1 68.4,201.1 87.4,220.1 84.3,223.2 87.1,226 93.2,226 99.6,232.4 96.6,235.4 
			116,254.9 183.6,322.4 187.9,326.8 192,322.7 198.4,329.1 198.4,339.2 199.2,340 204.2,335 221.2,351.9 268.9,399.7 271.2,397.4 
			243.5,369.7 243.5,369.7 243.5,369.6 221.2,347.3 221.2,345.8 		"/>
		<polygon id="XMLID_390_" points="248.7,517.2 232.3,500.9 229.6,503.6 229.6,498.2 225.2,493.8 196.2,464.7 199.2,461.7 
			193.9,456.3 188,462.2 188,454.3 182.1,454.3 187,449.4 181.6,444.1 177.6,448.1 128.1,398.7 128.1,389.3 116,389.3 113.4,389.3 
			112.2,388.2 111.9,388.6 116,392.7 118.6,395.3 124.1,400.8 142.9,419.6 141.9,420.6 142.9,421.6 142.9,425.4 148.7,425.4 
			155.1,431.8 154.1,432.8 190.3,469 184.2,469 276.7,561.5 276.7,561.5 276.7,561.5 276.7,545.2 249.4,517.9 		"/>
		<polygon id="XMLID_389_" points="171.5,415.4 166.1,410.1 160.8,415.4 215.7,470.3 218,468 168.5,418.5 		"/>
		<polygon id="XMLID_388_" points="160.3,414.9 160.3,408 154.4,408 159.2,403.2 153.9,397.8 149.8,401.9 125.6,377.7 125,378.4 
			116.1,369.5 117.5,369.5 116,368.1 113.4,365.4 112.7,366.1 91.3,344.7 90.1,344.7 116,370.7 		"/>
		<polygon id="XMLID_387_" points="225.2,481.8 225.2,478.6 221,478.6 223.1,480.8 222.9,481 229.6,487.8 235.1,493.3 253.9,512 
			251.8,514.1 235.5,497.7 234.8,498.5 251.1,514.8 254.2,517.9 263.4,527.1 276.7,540.4 276.7,526.7 231.7,481.8 		"/>
		<polygon id="XMLID_386_" points="225.2,488.9 229.6,493.3 229.6,491.9 223.2,485.5 223.1,485.6 216.2,478.6 214.9,478.6 		"/>
		<polygon id="XMLID_385_" points="170.6,374.3 170.9,374.3 170.6,374 		"/>
		<polygon id="XMLID_384_" points="230.3,437.2 280.7,487.7 280.7,486.7 280.7,482.1 235.8,437.2 		"/>
		<polygon id="XMLID_383_" points="180.1,383.5 178.8,384.8 219.9,425.9 219,425.9 221.2,428.1 221.2,424.6 216.5,420 215.8,420.8 
			215.8,419.2 		"/>
		<polygon id="XMLID_382_" points="272.5,500.5 280.7,508.8 280.7,504.2 277.1,500.5 		"/>
		<polygon id="XMLID_381_" points="246.4,464.1 280.7,498.4 280.7,492.5 249.4,461.1 		"/>
		<polygon id="XMLID_380_" points="243.5,455.3 237.1,448.9 234.2,451.8 243.5,461.1 		"/>
		<polygon id="XMLID_379_" points="221.2,443.1 140.7,362.6 141.7,361.6 132.3,352.2 126.6,352.2 129.5,349.3 124.8,344.7 
			116,344.7 108.6,344.7 116,352.2 187.9,424.1 192,420 198.4,426.4 198.4,436.5 199.2,437.3 204.2,432.3 221.2,449.2 268.9,497 
			271.2,494.7 243.5,467 243.5,467 243.5,466.9 221.2,444.6 		"/>
	</g>
</g>
<g>
	<g>
		<polygon id="XMLID_378_" class="st0" points="337.8,194.9 341.9,190.8 341.9,198 341.9,198.9 341.8,198.9 340.9,198 		"/>
		<polygon id="XMLID_377_" class="st0" points="452,72.6 463.1,61.4 466.7,57.8 466.7,59.3 472.6,59.3 468.4,63.6 471,66.2 
			452,85.3 431.7,105.5 352.3,184.9 350,182.6 399.5,133.1 395.5,129 401.9,122.6 413.6,122.6 407.8,116.8 419,105.5 438.5,86 
			441.4,86 439.9,84.6 		"/>
		<polygon id="XMLID_376_" class="st0" points="320,232.5 318.6,232.5 319.3,231.8 		"/>
		<polygon id="XMLID_375_" class="st0" points="344.9,219.5 366.3,198 374.1,190.2 375.7,191.7 369.4,198 342.8,224.6 338.4,229 
			338.4,225.8 344.8,219.4 		"/>
		<polygon id="XMLID_374_" class="st0" points="334.1,233.2 291.3,276.1 291.3,272.8 332.5,231.6 		"/>
		<polygon id="XMLID_373_" class="st0" points="450.5,103.4 452,102 454.6,99.3 457.3,102 455.9,103.4 452,103.4 		"/>
		<polygon id="XMLID_372_" class="st0" points="371.8,179.3 369.1,176.7 376.9,168.9 385.9,168.9 381.4,164.4 401.9,143.9 
			407.7,149.8 407.7,138.1 414.1,131.7 418.2,135.7 442.4,111.6 444.7,113.9 403.6,155 404.5,155 361.4,198 342.8,216.7 
			342.8,215.8 342.8,208.4 353.1,198 		"/>
		<polygon id="XMLID_371_" class="st0" points="380,184.3 386.4,177.9 387.9,179.5 380,187.4 		"/>
		<polygon id="XMLID_370_" class="st0" points="452,66.8 437,81.7 435.5,80.2 443.9,71.7 443.9,70.8 452,62.7 501.7,13.1 
			505.7,13.1 		"/>
		<polygon id="XMLID_369_" class="st0" points="295.5,215.1 287.3,223.4 287.3,218.8 290.9,215.1 		"/>
		<polygon id="XMLID_368_" class="st0" points="302.2,198 287.3,213 287.3,198 287.3,191.6 314.3,164.6 329.8,164.6 330.9,163.5 
			332,164.6 335.6,164.6 302.2,198 		"/>
		<polygon id="XMLID_367_" class="st0" points="384.4,105.5 384.4,105.5 394.7,105.5 384.4,115.9 		"/>
		<polygon id="XMLID_366_" class="st0" points="384.4,134.4 380.1,138.7 376,134.6 369.6,141 369.6,149.3 367.9,151 363.8,146.9 
			346.8,163.8 346,164.6 312.6,198 299.1,211.6 296.8,209.3 308,198 308,198 346.8,159.2 346.8,158.5 393.3,112 397.4,107.9 
			397.4,110.4 408.4,110.4 		"/>
		<polygon id="XMLID_365_" class="st0" points="407.8,102 405.5,99.7 452,53.3 455,50.2 452,47.2 451,46.2 452,45.2 457.4,39.8 
			469.1,39.8 463.3,33.9 484.1,13.1 496.8,13.1 452,57.9 		"/>
		<polygon id="XMLID_364_" class="st0" points="429.6,86 432.7,86 424.8,94 423.2,92.4 		"/>
		<polygon id="XMLID_363_" class="st0" points="449.4,42 449.4,36 452,33.4 455.8,29.6 458.8,32.6 452,39.4 		"/>
		<polygon id="XMLID_362_" class="st0" points="425.1,60.2 425.1,69.9 420.3,65 		"/>
		<polygon id="XMLID_361_" class="st0" points="435.6,55.8 432.5,52.8 443.5,41.8 446.5,44.8 439.9,51.5 		"/>
		<polygon id="XMLID_360_" class="st0" points="291.3,338.6 337.8,292.2 341.9,288.1 341.9,290.5 342.8,290.5 353.1,290.5 
			342.8,300.8 342.8,295.3 314.1,324 316.9,326.7 313.8,329.8 308.3,329.8 301.9,336.2 304.6,339 291.3,352.3 		"/>
		<polygon id="XMLID_359_" class="st0" points="395.5,226.3 401.9,219.9 413.6,219.9 407.8,214.1 423.8,198 438.5,183.3 
			441.4,183.3 439.9,181.9 452,169.9 463.1,158.7 466.7,155.1 466.7,156.6 472.6,156.6 468.4,160.9 470.4,162.9 476.7,156.6 
			477.9,156.6 471,163.5 452,182.6 436.5,198 352.3,282.2 350,279.9 399.5,230.4 		"/>
		<polygon id="XMLID_358_" class="st0" points="458.6,198 452,204.6 425.1,231.5 426.1,232.5 425.1,233.5 425.1,237.3 419.3,237.3 
			412.9,243.7 413.9,244.7 401.5,257.1 342.8,315.9 342.8,305.7 371.8,276.6 367.8,272.6 374.2,266.2 385.9,266.2 380,260.3 
			383.3,257.1 385.3,257.1 386.4,256 387.5,257.1 393.4,257.1 439.9,210.6 439.9,199.5 441.4,198 452,187.4 484.4,155 501.6,155 		
			"/>
		<polygon id="XMLID_357_" class="st0" points="320,329.8 318.6,329.8 319.3,329.1 		"/>
		<polygon id="XMLID_356_" class="st0" points="334.1,330.6 291.3,373.4 291.3,370.1 332.5,328.9 		"/>
		<polygon id="XMLID_355_" class="st0" points="346.4,318.3 338.4,326.3 338.4,323.1 344.8,316.7 		"/>
		<polygon id="XMLID_354_" class="st0" points="452,164.1 437,179 435.5,177.5 452,161 494.6,118.3 497.7,118.3 		"/>
		<polygon id="XMLID_353_" class="st0" points="496.8,110.4 452,155.2 409.1,198 407.8,199.4 406.5,198 405.5,197.1 452,150.6 
			455,147.5 452,144.5 451,143.5 452,142.5 457.4,137.1 469.1,137.1 463.3,131.2 484.1,110.4 		"/>
		<polygon id="XMLID_352_" class="st0" points="452,136.7 449.4,139.3 449.4,133.3 452,130.7 455.8,126.9 458.8,129.9 		"/>
		<polygon id="XMLID_351_" class="st0" points="295.5,312.4 287.3,320.7 287.3,316.1 290.9,312.4 		"/>
		<polygon id="XMLID_350_" class="st0" points="355.8,247.6 355.8,249.1 358.8,249.1 299.1,308.9 296.8,306.6 324.5,278.9 
			324.5,278.9 324.5,278.8 352.1,251.2 		"/>
		<polygon id="XMLID_349_" class="st0" points="384.4,213.2 384.4,202.8 394.7,202.8 		"/>
		<polygon id="XMLID_348_" class="st0" points="338.4,237.5 338.4,234.8 342.8,230.4 346.4,226.8 350.1,230.5 352.2,232.7 
			352.2,228.3 352.2,220.9 358.6,214.5 362.3,218.2 362.7,218.6 378.4,202.8 383,202.8 287.3,298.6 287.3,285.9 337,236.1 		"/>
		<polygon id="XMLID_347_" class="st0" points="324.5,267.2 330.9,260.8 333.8,263.7 324.5,273 		"/>
		<polygon id="XMLID_346_" class="st0" points="321.6,276 287.3,310.3 287.3,304.4 318.6,273 		"/>
		<polygon id="XMLID_345_" class="st0" points="429.6,183.3 432.7,183.3 424.8,191.3 423.2,189.7 		"/>
		
			<rect id="XMLID_344_" x="437.4" y="138.4" transform="matrix(0.7071 0.7071 -0.7071 0.7071 232.0585 -268.0028)" class="st0" width="4.3" height="15.5"/>
		<polygon id="XMLID_343_" class="st0" points="420.3,162.3 425.1,157.5 425.1,167.2 		"/>
		<polygon id="XMLID_342_" class="st0" points="291.3,449.6 291.3,435.9 337.8,389.5 341.9,385.4 341.9,387.8 342.8,387.8 
			346,387.8 347.6,387.8 314.1,421.3 316.9,424 313.8,427.1 308.3,427.1 301.9,433.5 304.6,436.3 		"/>
		<polygon id="XMLID_341_" class="st0" points="353.1,387.8 342.8,398.1 342.8,396.9 351.8,387.8 		"/>
		<polygon id="XMLID_340_" class="st0" points="452,277.3 454.6,274.6 455.3,275.3 476.7,253.9 477.9,253.9 452,279.9 407.7,324.1 
			407.7,317.3 413.6,317.3 408.8,312.4 414.1,307 418.2,311.1 442.4,286.9 443,287.6 451.9,278.7 450.5,278.7 		"/>
		<polygon id="XMLID_339_" class="st0" points="401.9,319.3 407.2,324.6 352.3,379.5 350,377.2 399.5,327.7 396.5,324.7 		"/>
		<polygon id="XMLID_338_" class="st0" points="452,301.9 425.1,328.8 426.1,329.8 425.1,330.8 425.1,334.6 419.3,334.6 412.9,341 
			413.9,342 342.8,413.2 342.8,403 371.8,374 368.8,370.9 374.1,365.5 380,371.4 380,363.5 385.9,363.5 381,358.6 386.4,353.3 
			390.4,357.3 439.9,307.9 439.9,296.8 452,284.7 484.4,252.3 501.6,252.3 		"/>
		<polygon id="XMLID_337_" class="st0" points="318.6,427.1 319.3,426.4 320,427.1 		"/>
		<polygon id="XMLID_336_" class="st0" points="455.8,224.2 458.4,226.8 452,233.3 449.4,235.9 449.4,231.3 452,228.7 455,225.6 
			454.7,225.2 		"/>
		<polygon id="XMLID_335_" class="st0" points="295.5,409.7 287.3,418 287.3,413.4 290.9,409.7 		"/>
		<polygon id="XMLID_334_" class="st0" points="338.4,334.8 338.4,332.1 346.4,324.1 352.2,330 352.2,318.2 358.6,311.8 
			362.7,315.9 378.4,300.2 383,300.2 348.1,335.1 349,335.1 287.3,396.9 287.3,395.9 287.3,383.2 337,333.5 		"/>
		<polygon id="XMLID_333_" class="st0" points="321.6,373.3 287.3,407.6 287.3,401.7 318.6,370.4 		"/>
		<polygon id="XMLID_332_" class="st0" points="384.4,310.5 384.4,300.2 394.7,300.2 		"/>
		<polygon id="XMLID_331_" class="st0" points="324.5,364.5 330.9,358.1 333.8,361 324.5,370.4 		"/>
		<polygon id="XMLID_330_" class="st0" points="397.4,283.3 397.4,291.5 393.3,287.4 		"/>
		
			<rect id="XMLID_329_" x="398.7" y="255.5" transform="matrix(-0.7071 0.7071 -0.7071 -0.7071 908.7356 137.763)" class="st0" width="54.2" height="3.3"/>
		<polygon id="XMLID_328_" class="st0" points="427.3,271.8 423.2,267.8 429.6,261.4 441.4,261.4 435.5,255.5 443.9,247.1 
			443.9,246.1 448.6,241.5 449.4,242.3 449.4,240.7 452,238.1 482.4,207.7 499.6,207.7 480.6,226.6 483.7,229.7 480.9,232.5 
			474.8,232.5 468.4,238.9 471.4,241.9 452,261.4 384.4,329 380.1,333.3 376,329.2 369.6,335.6 369.6,345.8 368.8,346.6 
			363.8,341.5 346.8,358.4 299.1,406.2 296.8,403.9 324.5,376.2 324.5,376.2 324.5,376.2 346.8,353.8 346.8,352.3 		"/>
		<polygon id="XMLID_327_" class="st0" points="319.3,523.7 335.7,507.4 338.4,510.1 338.4,504.7 342.8,500.3 371.8,471.3 
			368.8,468.2 374.1,462.8 380,468.7 380,460.8 385.9,460.8 381,456 386.4,450.6 390.4,454.6 439.9,405.2 439.9,395.8 452,395.8 
			454.6,395.8 455.8,394.7 456.1,395.1 452,399.2 449.4,401.8 443.9,407.3 425.1,426.1 426.1,427.1 425.1,428.1 425.1,431.9 
			419.3,431.9 412.9,438.3 413.9,439.3 377.7,475.5 383.8,475.5 291.3,568 291.3,568 291.3,568 291.3,551.7 318.6,524.4 		"/>
		<polygon id="XMLID_326_" class="st0" points="396.5,422 401.9,416.6 407.2,421.9 352.3,476.8 350,474.5 399.5,425 		"/>
		<polygon id="XMLID_325_" class="st0" points="407.7,421.4 407.7,414.6 413.6,414.6 408.8,409.7 414.1,404.3 418.2,408.4 
			442.4,384.2 443,384.9 451.9,376.1 450.5,376.1 452,374.6 454.6,371.9 455.3,372.6 476.7,351.2 477.9,351.2 452,377.2 		"/>
		<polygon id="XMLID_324_" class="st0" points="342.8,488.3 342.8,485.1 347,485.1 344.9,487.3 345.1,487.6 338.4,494.3 
			332.9,499.8 314.1,518.6 316.2,520.6 332.5,504.3 333.2,505 316.9,521.3 313.8,524.4 304.6,533.6 291.3,546.9 291.3,533.2 
			336.3,488.3 		"/>
		<polygon id="XMLID_323_" class="st0" points="342.8,495.5 338.4,499.8 338.4,498.4 344.8,492 344.9,492.1 351.8,485.1 
			353.1,485.1 		"/>
		<polygon id="XMLID_322_" class="st0" points="397.4,380.9 397.1,380.9 397.4,380.6 		"/>
		<polygon id="XMLID_321_" class="st0" points="337.7,443.7 287.3,494.2 287.3,493.2 287.3,488.6 332.2,443.7 		"/>
		<polygon id="XMLID_320_" class="st0" points="387.9,390 389.2,391.3 348.1,432.4 349,432.4 346.8,434.6 346.8,431.1 351.5,426.5 
			352.2,427.3 352.2,425.7 		"/>
		<polygon id="XMLID_319_" class="st0" points="295.5,507.1 287.3,515.3 287.3,510.7 290.9,507.1 		"/>
		<polygon id="XMLID_318_" class="st0" points="321.6,470.6 287.3,504.9 287.3,499 318.6,467.7 		"/>
		<polygon id="XMLID_317_" class="st0" points="324.5,461.8 330.9,455.4 333.8,458.3 324.5,467.7 		"/>
		<polygon id="XMLID_316_" class="st0" points="346.8,449.6 427.3,369.1 426.3,368.1 435.7,358.7 441.4,358.7 438.5,355.9 
			443.2,351.2 452,351.2 459.4,351.2 452,358.7 380.1,430.6 376,426.5 369.6,432.9 369.6,443.1 368.8,443.9 363.8,438.8 
			346.8,455.7 299.1,503.5 296.8,501.2 324.5,473.5 324.5,473.5 324.5,473.5 346.8,451.1 		"/>
	</g>
	<g>
		<polygon id="XMLID_315_" class="st0" points="236.8,194.9 232.6,190.8 232.6,198 232.6,198.9 232.7,198.9 233.6,198 		"/>
		<polygon id="XMLID_314_" class="st0" points="122.6,72.6 111.4,61.4 107.8,57.8 107.8,59.3 101.9,59.3 106.2,63.6 103.5,66.2 
			122.6,85.3 142.8,105.5 222.2,184.9 224.5,182.6 175,133.1 179,129 172.6,122.6 160.9,122.6 166.8,116.8 155.5,105.5 136,86 
			133.2,86 134.6,84.6 		"/>
		<polygon id="XMLID_313_" class="st0" points="254.5,232.5 255.9,232.5 255.2,231.8 		"/>
		<polygon id="XMLID_312_" class="st0" points="229.7,219.5 208.2,198 200.4,190.2 198.9,191.7 205.2,198 231.8,224.6 236.2,229 
			236.2,225.8 229.8,219.4 		"/>
		<polygon id="XMLID_311_" class="st0" points="240.4,233.2 283.2,276.1 283.2,272.8 242,231.6 		"/>
		<polygon id="XMLID_310_" class="st0" points="124,103.4 122.6,102 119.9,99.3 117.2,102 118.6,103.4 122.6,103.4 		"/>
		<polygon id="XMLID_309_" class="st0" points="202.7,179.3 205.4,176.7 197.6,168.9 188.7,168.9 193.1,164.4 172.6,143.9 
			166.8,149.8 166.8,138.1 160.4,131.7 156.3,135.7 132.1,111.6 129.9,113.9 171,155 170,155 213.1,198 231.8,216.7 231.8,215.8 
			231.8,208.4 221.4,198 		"/>
		<polygon id="XMLID_308_" class="st0" points="194.5,184.3 188.1,177.9 186.6,179.5 194.5,187.4 		"/>
		<polygon id="XMLID_307_" class="st0" points="122.6,66.8 137.5,81.7 139,80.2 130.6,71.7 130.6,70.8 122.6,62.7 72.9,13.1 
			68.8,13.1 		"/>
		<polygon id="XMLID_306_" class="st0" points="279,215.1 287.3,223.4 287.3,218.8 283.6,215.1 		"/>
		<polygon id="XMLID_305_" class="st0" points="272.3,198 287.3,213 287.3,198 287.3,191.6 260.3,164.6 244.7,164.6 243.6,163.5 
			242.5,164.6 238.9,164.6 272.3,198 		"/>
		<polygon id="XMLID_304_" class="st0" points="190.1,105.5 190.1,105.5 179.8,105.5 190.1,115.9 		"/>
		<polygon id="XMLID_303_" class="st0" points="190.1,134.4 194.5,138.7 198.5,134.6 204.9,141 204.9,149.3 206.6,151 210.8,146.9 
			227.7,163.8 228.5,164.6 261.9,198 275.5,211.6 277.8,209.3 266.5,198 266.5,198 227.7,159.2 227.7,158.5 181.3,112 177.2,107.9 
			177.2,110.4 166.1,110.4 		"/>
		<polygon id="XMLID_302_" class="st0" points="166.7,102 169,99.7 122.6,53.3 119.5,50.2 122.6,47.2 123.5,46.2 122.6,45.2 
			117.1,39.8 105.4,39.8 111.3,33.9 90.4,13.1 77.7,13.1 122.6,57.9 		"/>
		<polygon id="XMLID_301_" class="st0" points="144.9,86 141.8,86 149.7,94 151.3,92.4 		"/>
		<polygon id="XMLID_300_" class="st0" points="125.2,42 125.2,36 122.6,33.4 118.8,29.6 115.7,32.6 122.6,39.4 		"/>
		<polygon id="XMLID_299_" class="st0" points="149.4,60.2 149.4,69.9 154.2,65 		"/>
		<polygon id="XMLID_298_" class="st0" points="139,55.8 142,52.8 131,41.8 128,44.8 134.6,51.5 		"/>
		<polygon id="XMLID_297_" class="st0" points="283.2,338.6 236.8,292.2 232.6,288.1 232.6,290.5 231.8,290.5 221.4,290.5 
			231.8,300.8 231.8,295.3 260.4,324 257.6,326.7 260.7,329.8 266.2,329.8 272.6,336.2 269.9,339 283.2,352.3 		"/>
		<polygon id="XMLID_296_" class="st0" points="179,226.3 172.6,219.9 160.9,219.9 166.8,214.1 150.7,198 136,183.3 133.2,183.3 
			134.6,181.9 122.6,169.9 111.4,158.7 107.8,155.1 107.8,156.6 101.9,156.6 106.2,160.9 104.1,162.9 97.8,156.6 96.6,156.6 
			103.5,163.5 122.6,182.6 138,198 222.2,282.2 224.5,279.9 175,230.4 		"/>
		<polygon id="XMLID_295_" class="st0" points="116,198 122.6,204.6 149.4,231.5 148.4,232.5 149.4,233.5 149.4,237.3 155.3,237.3 
			161.7,243.7 160.6,244.7 173,257.1 231.8,315.9 231.8,305.7 202.7,276.6 206.8,272.6 200.4,266.2 188.7,266.2 194.5,260.3 
			191.3,257.1 189.2,257.1 188.1,256 187,257.1 181.1,257.1 134.6,210.6 134.6,199.5 133.2,198 122.6,187.4 90.1,155 72.9,155 		"/>
		<polygon id="XMLID_294_" class="st0" points="254.5,329.8 255.9,329.8 255.2,329.1 		"/>
		<polygon id="XMLID_293_" class="st0" points="240.4,330.6 283.2,373.4 283.2,370.1 242,328.9 		"/>
		<polygon id="XMLID_292_" class="st0" points="228.1,318.3 236.2,326.3 236.2,323.1 229.8,316.7 		"/>
		<polygon id="XMLID_291_" class="st0" points="122.6,164.1 137.5,179 139,177.5 122.6,161 79.9,118.3 76.8,118.3 		"/>
		<polygon id="XMLID_290_" class="st0" points="77.7,110.4 122.6,155.2 165.4,198 166.7,199.4 168,198 169,197.1 122.6,150.6 
			119.5,147.5 122.6,144.5 123.5,143.5 122.6,142.5 117.1,137.1 105.4,137.1 111.3,131.2 90.4,110.4 		"/>
		<polygon id="XMLID_289_" class="st0" points="122.6,136.7 125.2,139.3 125.2,133.3 122.6,130.7 118.8,126.9 115.7,129.9 		"/>
		<polygon id="XMLID_288_" class="st0" points="279,312.4 287.3,320.7 287.3,316.1 283.6,312.4 		"/>
		<polygon id="XMLID_287_" class="st0" points="218.8,247.6 218.8,249.1 215.7,249.1 275.5,308.9 277.8,306.6 250.1,278.9 
			250,278.9 250,278.8 222.4,251.2 		"/>
		<polygon id="XMLID_286_" class="st0" points="190.1,213.2 190.1,202.8 179.8,202.8 		"/>
		<polygon id="XMLID_285_" class="st0" points="236.2,237.5 236.2,234.8 231.8,230.4 228.1,226.8 224.4,230.5 222.3,232.7 
			222.3,228.3 222.3,220.9 215.9,214.5 212.2,218.2 211.8,218.6 196.1,202.8 191.5,202.8 287.3,298.6 287.3,285.9 237.5,236.1 		"/>
		<polygon id="XMLID_284_" class="st0" points="250,267.2 243.6,260.8 240.7,263.7 250,273 		"/>
		<polygon id="XMLID_283_" class="st0" points="253,276 287.3,310.3 287.3,304.4 255.9,273 		"/>
		<polygon id="XMLID_282_" class="st0" points="144.9,183.3 141.8,183.3 149.7,191.3 151.3,189.7 		"/>
		
			<rect id="XMLID_281_" x="132.8" y="138.4" transform="matrix(-0.7071 0.7071 -0.7071 -0.7071 333.7608 153.9875)" class="st0" width="4.3" height="15.5"/>
		<polygon id="XMLID_280_" class="st0" points="154.2,162.3 149.4,157.5 149.4,167.2 		"/>
		<polygon id="XMLID_279_" class="st0" points="283.2,449.6 283.2,435.9 236.8,389.5 232.6,385.4 232.6,387.8 231.8,387.8 
			228.5,387.8 227,387.8 260.4,421.3 257.6,424 260.7,427.1 266.2,427.1 272.6,433.5 269.9,436.3 		"/>
		<polygon id="XMLID_278_" class="st0" points="221.4,387.8 231.8,398.1 231.8,396.9 222.7,387.8 		"/>
		<polygon id="XMLID_277_" class="st0" points="122.6,277.3 119.9,274.6 119.2,275.3 97.8,253.9 96.6,253.9 122.6,279.9 
			166.8,324.1 166.8,317.3 160.9,317.3 165.8,312.4 160.4,307 156.3,311.1 132.1,286.9 131.5,287.6 122.7,278.7 124,278.7 		"/>
		<polygon id="XMLID_276_" class="st0" points="172.6,319.3 167.3,324.6 222.2,379.5 224.5,377.2 175,327.7 178,324.7 		"/>
		<polygon id="XMLID_275_" class="st0" points="122.6,301.9 149.4,328.8 148.4,329.8 149.4,330.8 149.4,334.6 155.3,334.6 
			161.7,341 160.6,342 231.8,413.2 231.8,403 202.7,374 205.8,370.9 200.4,365.5 194.5,371.4 194.5,363.5 188.7,363.5 193.5,358.6 
			188.1,353.3 184.1,357.3 134.6,307.9 134.6,296.8 122.6,284.7 90.1,252.3 72.9,252.3 		"/>
		<polygon id="XMLID_274_" class="st0" points="255.9,427.1 255.2,426.4 254.5,427.1 		"/>
		<polygon id="XMLID_273_" class="st0" points="118.8,224.2 116.1,226.8 122.6,233.3 125.2,235.9 125.2,231.3 122.6,228.7 
			119.5,225.6 119.8,225.2 		"/>
		<polygon id="XMLID_272_" class="st0" points="279,409.7 287.3,418 287.3,413.4 283.6,409.7 		"/>
		<polygon id="XMLID_271_" class="st0" points="236.2,334.8 236.2,332.1 228.1,324.1 222.3,330 222.3,318.2 215.9,311.8 
			211.8,315.9 196.1,300.2 191.5,300.2 226.5,335.1 225.5,335.1 287.3,396.9 287.3,395.9 287.3,383.2 237.5,333.5 		"/>
		<polygon id="XMLID_270_" class="st0" points="253,373.3 287.3,407.6 287.3,401.7 255.9,370.4 		"/>
		<polygon id="XMLID_269_" class="st0" points="190.1,310.5 190.1,300.2 179.8,300.2 		"/>
		<polygon id="XMLID_268_" class="st0" points="250,364.5 243.6,358.1 240.7,361 250,370.4 		"/>
		<polygon id="XMLID_267_" class="st0" points="177.2,283.3 177.2,291.5 181.3,287.4 		"/>
		
			<rect id="XMLID_266_" x="121.6" y="255.5" transform="matrix(0.7071 0.7071 -0.7071 0.7071 225.338 -29.8405)" class="st0" width="54.2" height="3.3"/>
		<polygon id="XMLID_265_" class="st0" points="147.2,271.8 151.3,267.8 144.9,261.4 133.2,261.4 139,255.5 130.6,247.1 
			130.6,246.1 126,241.5 125.2,242.3 125.2,240.7 122.6,238.1 92.1,207.7 74.9,207.7 93.9,226.6 90.9,229.7 93.7,232.5 99.8,232.5 
			106.2,238.9 103.1,241.9 122.6,261.4 190.1,329 194.5,333.3 198.5,329.2 204.9,335.6 204.9,345.8 205.7,346.6 210.8,341.5 
			227.7,358.4 275.5,406.2 277.8,403.9 250.1,376.2 250,376.2 250,376.2 227.7,353.8 227.7,352.3 		"/>
		<polygon id="XMLID_264_" class="st0" points="255.2,523.7 238.9,507.4 236.2,510.1 236.2,504.7 231.8,500.3 202.7,471.3 
			205.8,468.2 200.4,462.8 194.5,468.7 194.5,460.8 188.7,460.8 193.5,456 188.1,450.6 184.1,454.6 134.6,405.2 134.6,395.8 
			122.6,395.8 119.9,395.8 118.8,394.7 118.4,395.1 122.6,399.2 125.2,401.8 130.7,407.3 149.4,426.1 148.4,427.1 149.4,428.1 
			149.4,431.9 155.3,431.9 161.7,438.3 160.6,439.3 196.8,475.5 190.7,475.5 283.2,568 283.2,568 283.2,568 283.2,551.7 
			255.9,524.4 		"/>
		<polygon id="XMLID_263_" class="st0" points="178,422 172.6,416.6 167.3,421.9 222.2,476.8 224.5,474.5 175,425 		"/>
		<polygon id="XMLID_262_" class="st0" points="166.8,421.4 166.8,414.6 160.9,414.6 165.8,409.7 160.4,404.3 156.3,408.4 
			132.1,384.2 131.5,384.9 122.7,376.1 124,376.1 122.6,374.6 119.9,371.9 119.2,372.6 97.8,351.2 96.6,351.2 122.6,377.2 		"/>
		<polygon id="XMLID_261_" class="st0" points="231.8,488.3 231.8,485.1 227.5,485.1 229.7,487.3 229.4,487.6 236.2,494.3 
			241.6,499.8 260.4,518.6 258.3,520.6 242,504.3 241.3,505 257.6,521.3 260.7,524.4 269.9,533.6 283.2,546.9 283.2,533.2 
			238.3,488.3 		"/>
		<polygon id="XMLID_260_" class="st0" points="231.8,495.5 236.2,499.8 236.2,498.4 229.8,492 229.7,492.1 222.7,485.1 
			221.4,485.1 		"/>
		<polygon id="XMLID_259_" class="st0" points="177.2,380.9 177.5,380.9 177.2,380.6 		"/>
		<polygon id="XMLID_258_" class="st0" points="236.8,443.7 287.3,494.2 287.3,493.2 287.3,488.6 242.3,443.7 		"/>
		<polygon id="XMLID_257_" class="st0" points="186.6,390 185.3,391.3 226.5,432.4 225.5,432.4 227.7,434.6 227.7,431.1 
			223.1,426.5 222.3,427.3 222.3,425.7 		"/>
		<polygon id="XMLID_256_" class="st0" points="279,507.1 287.3,515.3 287.3,510.7 283.6,507.1 		"/>
		<polygon id="XMLID_255_" class="st0" points="253,470.6 287.3,504.9 287.3,499 255.9,467.7 		"/>
		<polygon id="XMLID_254_" class="st0" points="250,461.8 243.6,455.4 240.7,458.3 250,467.7 		"/>
		<polygon id="XMLID_253_" class="st0" points="227.7,449.6 147.2,369.1 148.2,368.1 138.8,358.7 133.2,358.7 136,355.9 
			131.3,351.2 122.6,351.2 115.1,351.2 122.6,358.7 194.5,430.6 198.5,426.5 204.9,432.9 204.9,443.1 205.7,443.9 210.8,438.8 
			227.7,455.7 275.5,503.5 277.8,501.2 250.1,473.5 250,473.5 250,473.5 227.7,451.1 		"/>
	</g>
</g>
<g>
	<g>
		<polygon id="XMLID_252_" class="st1" points="344.3,188.3 348.4,184.2 348.4,191.5 348.4,192.4 348.4,192.4 347.5,191.5 		"/>
		<polygon id="XMLID_251_" class="st1" points="458.5,66 469.6,54.9 473.3,51.3 473.3,52.8 479.2,52.8 474.9,57 477.6,59.7 
			458.5,78.7 438.2,99 358.9,178.4 356.6,176.1 406.1,126.6 402,122.5 408.4,116.1 420.1,116.1 414.3,110.3 425.5,99 445,79.5 
			447.9,79.5 446.5,78.1 		"/>
		<polygon id="XMLID_250_" class="st1" points="326.5,226 325.2,226 325.8,225.3 		"/>
		<polygon id="XMLID_249_" class="st1" points="351.4,212.9 372.8,191.5 380.7,183.7 382.2,185.2 375.9,191.5 349.3,218.1 
			344.9,222.5 344.9,219.2 351.3,212.8 		"/>
		<polygon id="XMLID_248_" class="st1" points="340.7,226.7 297.8,269.5 297.8,266.3 339,225.1 		"/>
		<polygon id="XMLID_247_" class="st1" points="457.1,96.9 458.5,95.4 461.2,92.8 463.8,95.4 462.4,96.9 458.5,96.9 		"/>
		<polygon id="XMLID_246_" class="st1" points="378.3,172.8 375.7,170.2 383.5,162.4 392.4,162.4 387.9,157.9 408.4,137.4 
			414.3,143.3 414.3,131.6 420.7,125.2 424.7,129.2 448.9,105 451.2,107.3 410.1,148.4 411,148.4 368,191.5 349.3,210.2 
			349.3,209.2 349.3,201.9 359.6,191.5 		"/>
		<polygon id="XMLID_245_" class="st1" points="386.5,177.8 392.9,171.4 394.5,172.9 386.5,180.9 		"/>
		<polygon id="XMLID_244_" class="st1" points="458.5,60.2 443.6,75.2 442,73.6 450.5,65.2 450.5,64.3 458.5,56.2 508.2,6.5 
			512.2,6.5 		"/>
		<polygon id="XMLID_243_" class="st1" points="302,208.6 293.8,216.8 293.8,212.2 297.4,208.6 		"/>
		<polygon id="XMLID_242_" class="st1" points="308.7,191.5 293.8,206.5 293.8,191.5 293.8,185.1 320.8,158.1 336.3,158.1 
			337.4,157 338.5,158.1 342.2,158.1 308.7,191.5 		"/>
		<polygon id="XMLID_241_" class="st1" points="390.9,99 390.9,99 401.2,99 390.9,109.3 		"/>
		<polygon id="XMLID_240_" class="st1" points="390.9,127.8 386.6,132.1 382.5,128.1 376.1,134.5 376.1,142.8 374.4,144.5 
			370.3,140.3 353.3,157.3 352.6,158.1 319.1,191.5 305.6,205 303.3,202.7 314.5,191.5 314.5,191.5 353.3,152.7 353.3,151.9 
			399.8,105.5 403.9,101.4 403.9,103.8 414.9,103.8 		"/>
		<polygon id="XMLID_239_" class="st1" points="414.4,95.5 412.1,93.2 458.5,46.8 461.6,43.7 458.5,40.6 457.5,39.7 458.5,38.7 
			463.9,33.3 475.6,33.3 469.8,27.4 490.6,6.5 503.3,6.5 458.5,51.4 		"/>
		<polygon id="XMLID_238_" class="st1" points="436.2,79.5 439.2,79.5 431.3,87.4 429.8,85.9 		"/>
		<polygon id="XMLID_237_" class="st1" points="455.9,35.5 455.9,29.4 458.5,26.8 462.3,23 465.3,26.1 458.5,32.9 		"/>
		<polygon id="XMLID_236_" class="st1" points="431.6,53.7 431.6,63.3 426.8,58.5 		"/>
		<polygon id="XMLID_235_" class="st1" points="442.1,49.3 439.1,46.2 450,35.3 453.1,38.3 446.4,45 		"/>
		<polygon id="XMLID_234_" class="st1" points="297.8,332.1 344.3,285.7 348.4,281.5 348.4,284 349.3,284 359.6,284 349.3,294.3 
			349.3,288.8 320.7,317.4 323.4,320.2 320.3,323.3 314.8,323.3 308.4,329.7 311.2,332.4 297.8,345.8 		"/>
		<polygon id="XMLID_233_" class="st1" points="402,219.8 408.4,213.4 420.1,213.4 414.3,207.6 430.3,191.5 445,176.8 447.9,176.8 
			446.5,175.4 458.5,163.3 469.6,152.2 473.3,148.6 473.3,150.1 479.2,150.1 474.9,154.3 476.9,156.4 483.2,150.1 484.5,150.1 
			477.6,157 458.5,176 443,191.5 358.9,275.7 356.6,273.4 406.1,223.9 		"/>
		<polygon id="XMLID_232_" class="st1" points="465.1,191.5 458.5,198.1 431.7,224.9 432.7,225.9 431.6,227 431.6,230.8 
			425.8,230.8 419.4,237.2 420.4,238.2 408.1,250.6 349.3,309.3 349.3,299.2 378.3,270.1 374.3,266.1 380.7,259.7 392.4,259.7 
			386.5,253.8 389.8,250.6 391.8,250.6 392.9,249.4 394,250.6 399.9,250.6 446.4,204.1 446.4,193 447.9,191.5 458.5,180.9 
			491,148.4 508.2,148.4 		"/>
		<polygon id="XMLID_231_" class="st1" points="326.5,323.3 325.2,323.3 325.8,322.6 		"/>
		<polygon id="XMLID_230_" class="st1" points="340.7,324 297.8,366.9 297.8,363.6 339,322.4 		"/>
		<polygon id="XMLID_229_" class="st1" points="352.9,311.8 344.9,319.8 344.9,316.5 351.3,310.1 		"/>
		<polygon id="XMLID_228_" class="st1" points="458.5,157.5 443.6,172.5 442,170.9 458.5,154.5 501.2,111.8 504.2,111.8 		"/>
		<polygon id="XMLID_227_" class="st1" points="503.3,103.8 458.5,148.7 415.7,191.5 414.4,192.8 413,191.5 412.1,190.5 
			458.5,144.1 461.6,141 458.5,137.9 457.5,137 458.5,136 463.9,130.6 475.6,130.6 469.8,124.7 490.6,103.8 		"/>
		<polygon id="XMLID_226_" class="st1" points="458.5,130.2 455.9,132.8 455.9,126.7 458.5,124.1 462.3,120.3 465.3,123.4 		"/>
		<polygon id="XMLID_225_" class="st1" points="302,305.9 293.8,314.2 293.8,309.6 297.4,305.9 		"/>
		<polygon id="XMLID_224_" class="st1" points="362.3,241.1 362.3,242.6 365.4,242.6 305.6,302.3 303.3,300 331,272.3 331,272.4 
			331,272.3 358.6,244.7 		"/>
		<polygon id="XMLID_223_" class="st1" points="390.9,206.6 390.9,196.3 401.2,196.3 		"/>
		<polygon id="XMLID_222_" class="st1" points="344.9,231 344.9,228.3 349.3,223.9 352.9,220.3 356.6,224 358.8,226.1 358.8,221.8 
			358.8,214.4 365.2,208 368.9,211.7 369.2,212.1 385,196.3 389.6,196.3 293.8,292.1 293.8,279.4 343.6,229.6 		"/>
		<polygon id="XMLID_221_" class="st1" points="331,260.7 337.4,254.3 340.4,257.2 331,266.5 		"/>
		<polygon id="XMLID_220_" class="st1" points="328.1,269.5 293.8,303.8 293.8,297.9 325.2,266.5 		"/>
		<polygon id="XMLID_219_" class="st1" points="436.2,176.8 439.2,176.8 431.3,184.7 429.8,183.2 		"/>
		
			<rect id="XMLID_218_" x="443.9" y="131.8" transform="matrix(0.7071 0.7071 -0.7071 0.7071 229.3554 -274.5286)" class="st1" width="4.3" height="15.5"/>
		<polygon id="XMLID_217_" class="st1" points="426.8,155.8 431.6,151 431.6,160.7 		"/>
		<polygon id="XMLID_216_" class="st1" points="297.8,443.1 297.8,429.4 344.3,383 348.4,378.9 348.4,381.3 349.3,381.3 
			352.6,381.3 354.1,381.3 320.7,414.7 323.4,417.5 320.3,420.6 314.8,420.6 308.4,427 311.2,429.7 		"/>
		<polygon id="XMLID_215_" class="st1" points="359.6,381.3 349.3,391.6 349.3,390.4 358.4,381.3 		"/>
		<polygon id="XMLID_214_" class="st1" points="458.5,270.8 461.2,268.1 461.8,268.8 483.2,247.4 484.5,247.4 458.5,273.4 
			414.3,317.6 414.3,310.7 420.1,310.7 415.3,305.9 420.7,300.5 424.7,304.6 448.9,280.4 449.6,281 458.4,272.2 457.1,272.2 		"/>
		<polygon id="XMLID_213_" class="st1" points="408.4,312.8 413.7,318.1 358.9,373 356.6,370.7 406.1,321.2 403,318.1 		"/>
		<polygon id="XMLID_212_" class="st1" points="458.5,295.4 431.7,322.2 432.7,323.3 431.6,324.3 431.6,328.1 425.8,328.1 
			419.4,334.5 420.4,335.5 349.3,406.6 349.3,396.5 378.3,367.4 375.3,364.4 380.7,359 386.5,364.9 386.5,357 392.4,357 
			387.5,352.1 392.9,346.7 397,350.8 446.4,301.4 446.4,290.3 458.5,278.2 491,245.7 508.2,245.7 		"/>
		<polygon id="XMLID_211_" class="st1" points="325.2,420.6 325.8,419.9 326.5,420.6 		"/>
		<polygon id="XMLID_210_" class="st1" points="462.3,217.6 464.9,220.3 458.5,226.7 455.9,229.3 455.9,224.7 458.5,222.1 
			461.6,219.1 461.2,218.7 		"/>
		<polygon id="XMLID_209_" class="st1" points="302,403.2 293.8,411.5 293.8,406.9 297.4,403.2 		"/>
		<polygon id="XMLID_208_" class="st1" points="344.9,328.3 344.9,325.6 352.9,317.6 358.8,323.4 358.8,311.7 365.2,305.3 
			369.2,309.4 385,293.6 389.6,293.6 354.6,328.6 355.5,328.6 293.8,390.4 293.8,389.4 293.8,376.7 343.6,326.9 		"/>
		<polygon id="XMLID_207_" class="st1" points="328.1,366.8 293.8,401.1 293.8,395.2 325.2,363.8 		"/>
		<polygon id="XMLID_206_" class="st1" points="390.9,303.9 390.9,293.6 401.2,293.6 		"/>
		<polygon id="XMLID_205_" class="st1" points="331,358 337.4,351.6 340.4,354.5 331,363.8 		"/>
		<polygon id="XMLID_204_" class="st1" points="403.9,276.7 403.9,284.9 399.8,280.8 		"/>
		
			<rect id="XMLID_203_" x="405.3" y="248.9" transform="matrix(-0.7071 0.7071 -0.7071 -0.7071 915.2614 122.0084)" class="st1" width="54.2" height="3.3"/>
		<polygon id="XMLID_202_" class="st1" points="433.8,265.3 429.8,261.2 436.2,254.8 447.9,254.8 442,249 450.5,240.6 450.5,239.6 
			455.1,235 455.9,235.8 455.9,234.2 458.5,231.6 488.9,201.1 506.1,201.1 487.2,220.1 490.2,223.2 487.4,226 481.3,226 
			474.9,232.4 477.9,235.4 458.5,254.9 390.9,322.4 386.6,326.8 382.5,322.7 376.1,329.1 376.1,339.2 375.4,340 370.3,335 
			353.3,351.9 305.6,399.7 303.3,397.4 331,369.7 331,369.7 331,369.6 353.3,347.3 353.3,345.8 		"/>
		<polygon id="XMLID_201_" class="st1" points="325.8,517.2 342.2,500.9 344.9,503.6 344.9,498.2 349.3,493.8 378.3,464.7 
			375.3,461.7 380.7,456.3 386.5,462.2 386.5,454.3 392.4,454.3 387.5,449.4 392.9,444.1 397,448.1 446.4,398.7 446.4,389.3 
			458.5,389.3 461.2,389.3 462.3,388.2 462.7,388.6 458.5,392.7 455.9,395.3 450.4,400.8 431.7,419.6 432.7,420.6 431.6,421.6 
			431.6,425.4 425.8,425.4 419.4,431.8 420.4,432.8 384.3,469 390.3,469 297.8,561.5 297.8,561.5 297.8,561.5 297.8,545.2 
			325.2,517.9 		"/>
		<polygon id="XMLID_200_" class="st1" points="403,415.4 408.4,410.1 413.7,415.4 358.9,470.3 356.6,468 406.1,418.5 		"/>
		<polygon id="XMLID_199_" class="st1" points="414.3,414.9 414.3,408 420.1,408 415.3,403.2 420.7,397.8 424.7,401.9 448.9,377.7 
			449.6,378.4 458.4,369.5 457.1,369.5 458.5,368.1 461.2,365.4 461.8,366.1 483.2,344.7 484.5,344.7 458.5,370.7 		"/>
		<polygon id="XMLID_198_" class="st1" points="349.3,481.8 349.3,478.6 353.5,478.6 351.4,480.8 351.7,481 344.9,487.8 
			339.4,493.3 320.7,512 322.7,514.1 339,497.7 339.8,498.5 323.4,514.8 320.3,517.9 311.2,527.1 297.8,540.4 297.8,526.7 
			342.8,481.8 		"/>
		<polygon id="XMLID_197_" class="st1" points="349.3,488.9 344.9,493.3 344.9,491.9 351.3,485.5 351.4,485.6 358.4,478.6 
			359.6,478.6 		"/>
		<polygon id="XMLID_196_" class="st1" points="403.9,374.3 403.6,374.3 403.9,374 		"/>
		<polygon id="XMLID_195_" class="st1" points="344.3,437.2 293.8,487.7 293.8,486.7 293.8,482.1 338.7,437.2 		"/>
		<polygon id="XMLID_194_" class="st1" points="394.4,383.5 395.7,384.8 354.6,425.9 355.5,425.9 353.3,428.1 353.3,424.6 358,420 
			358.8,420.8 358.8,419.2 		"/>
		<polygon id="XMLID_193_" class="st1" points="302,500.5 293.8,508.8 293.8,504.2 297.4,500.5 		"/>
		<polygon id="XMLID_192_" class="st1" points="328.1,464.1 293.8,498.4 293.8,492.5 325.2,461.1 		"/>
		<polygon id="XMLID_191_" class="st1" points="331,455.3 337.4,448.9 340.4,451.8 331,461.1 		"/>
		<polygon id="XMLID_190_" class="st1" points="353.3,443.1 433.8,362.6 432.8,361.6 442.3,352.2 447.9,352.2 445.1,349.3 
			449.7,344.7 458.5,344.7 466,344.7 458.5,352.2 386.6,424.1 382.5,420 376.1,426.4 376.1,436.5 375.4,437.3 370.3,432.3 
			353.3,449.2 305.6,497 303.3,494.7 331,467 331,467 331,466.9 353.3,444.6 		"/>
	</g>
	<g>
		<polygon id="XMLID_189_" class="st1" points="243.3,188.3 239.2,184.2 239.2,191.5 239.2,192.4 239.2,192.4 240.1,191.5 		"/>
		<polygon id="XMLID_188_" class="st1" points="129.1,66 117.9,54.9 114.3,51.3 114.3,52.8 108.4,52.8 112.7,57 110,59.7 
			129.1,78.7 149.4,99 228.7,178.4 231,176.1 181.5,126.6 185.6,122.5 179.2,116.1 167.4,116.1 173.3,110.3 162.1,99 142.5,79.5 
			139.7,79.5 141.1,78.1 		"/>
		<polygon id="XMLID_187_" class="st1" points="261,226 262.4,226 261.7,225.3 		"/>
		<polygon id="XMLID_186_" class="st1" points="236.2,212.9 214.8,191.5 206.9,183.7 205.4,185.2 211.7,191.5 238.3,218.1 
			242.7,222.5 242.7,219.2 236.3,212.8 		"/>
		<polygon id="XMLID_185_" class="st1" points="246.9,226.7 289.7,269.5 289.7,266.3 248.5,225.1 		"/>
		<polygon id="XMLID_184_" class="st1" points="130.5,96.9 129.1,95.4 126.4,92.8 123.7,95.4 125.2,96.9 129.1,96.9 		"/>
		<polygon id="XMLID_183_" class="st1" points="209.2,172.8 211.9,170.2 204.1,162.4 195.2,162.4 199.6,157.9 179.2,137.4 
			173.3,143.3 173.3,131.6 166.9,125.2 162.9,129.2 138.7,105 136.4,107.3 177.5,148.4 176.5,148.4 219.6,191.5 238.3,210.2 
			238.3,209.2 238.3,201.9 227.9,191.5 		"/>
		<polygon id="XMLID_182_" class="st1" points="201.1,177.8 194.7,171.4 193.1,172.9 201.1,180.9 		"/>
		<polygon id="XMLID_181_" class="st1" points="129.1,60.2 144,75.2 145.5,73.6 137.1,65.2 137.1,64.3 129.1,56.2 79.4,6.5 
			75.4,6.5 		"/>
		<polygon id="XMLID_180_" class="st1" points="285.5,208.6 293.8,216.8 293.8,212.2 290.1,208.6 		"/>
		<polygon id="XMLID_179_" class="st1" points="278.8,191.5 293.8,206.5 293.8,191.5 293.8,185.1 266.8,158.1 251.3,158.1 
			250.2,157 249,158.1 245.4,158.1 278.8,191.5 		"/>
		<polygon id="XMLID_178_" class="st1" points="196.7,99 196.7,99 186.4,99 196.7,109.3 		"/>
		<polygon id="XMLID_177_" class="st1" points="196.7,127.8 201,132.1 205,128.1 211.4,134.5 211.4,142.8 213.1,144.5 217.3,140.3 
			234.2,157.3 235,158.1 268.5,191.5 282,205 284.3,202.7 273,191.5 273,191.5 234.2,152.7 234.2,151.9 187.8,105.5 183.7,101.4 
			183.7,103.8 172.7,103.8 		"/>
		<polygon id="XMLID_176_" class="st1" points="173.2,95.5 175.5,93.2 129.1,46.8 126,43.7 129.1,40.6 130.1,39.7 129.1,38.7 
			123.7,33.3 111.9,33.3 117.8,27.4 96.9,6.5 84.2,6.5 129.1,51.4 		"/>
		<polygon id="XMLID_175_" class="st1" points="151.4,79.5 148.3,79.5 156.3,87.4 157.8,85.9 		"/>
		<polygon id="XMLID_174_" class="st1" points="131.7,35.5 131.7,29.4 129.1,26.8 125.3,23 122.3,26.1 129.1,32.9 		"/>
		<polygon id="XMLID_173_" class="st1" points="155.9,53.7 155.9,63.3 160.8,58.5 		"/>
		<polygon id="XMLID_172_" class="st1" points="145.5,49.3 148.5,46.2 137.5,35.3 134.5,38.3 141.2,45 		"/>
		<polygon id="XMLID_171_" class="st1" points="289.7,332.1 243.3,285.7 239.2,281.5 239.2,284 238.3,284 228,284 238.3,294.3 
			238.3,288.8 266.9,317.4 264.2,320.2 267.3,323.3 272.8,323.3 279.2,329.7 276.4,332.4 289.7,345.8 		"/>
		<polygon id="XMLID_170_" class="st1" points="185.6,219.8 179.2,213.4 167.4,213.4 173.3,207.6 157.2,191.5 142.5,176.8 
			139.7,176.8 141.1,175.4 129.1,163.3 117.9,152.2 114.3,148.6 114.3,150.1 108.4,150.1 112.7,154.3 110.6,156.4 104.3,150.1 
			103.1,150.1 110,157 129.1,176 144.5,191.5 228.7,275.7 231,273.4 181.5,223.9 		"/>
		<polygon id="XMLID_169_" class="st1" points="122.5,191.5 129.1,198.1 155.9,224.9 154.9,225.9 155.9,227 155.9,230.8 
			161.8,230.8 168.2,237.2 167.2,238.2 179.5,250.6 238.3,309.3 238.3,299.2 209.2,270.1 213.3,266.1 206.9,259.7 195.2,259.7 
			201,253.8 197.8,250.6 195.8,250.6 194.7,249.4 193.5,250.6 187.7,250.6 141.2,204.1 141.2,193 139.7,191.5 129.1,180.9 
			96.6,148.4 79.4,148.4 		"/>
		<polygon id="XMLID_168_" class="st1" points="261,323.3 262.4,323.3 261.7,322.6 		"/>
		<polygon id="XMLID_167_" class="st1" points="246.9,324 289.7,366.9 289.7,363.6 248.5,322.4 		"/>
		<polygon id="XMLID_166_" class="st1" points="234.6,311.8 242.7,319.8 242.7,316.5 236.3,310.1 		"/>
		<polygon id="XMLID_165_" class="st1" points="129.1,157.5 144,172.5 145.5,170.9 129.1,154.5 86.4,111.8 83.4,111.8 		"/>
		<polygon id="XMLID_164_" class="st1" points="84.2,103.8 129.1,148.7 171.9,191.5 173.2,192.8 174.5,191.5 175.5,190.5 
			129.1,144.1 126,141 129.1,137.9 130.1,137 129.1,136 123.7,130.6 111.9,130.6 117.8,124.7 96.9,103.8 		"/>
		<polygon id="XMLID_163_" class="st1" points="129.1,130.2 131.7,132.8 131.7,126.7 129.1,124.1 125.3,120.3 122.3,123.4 		"/>
		<polygon id="XMLID_162_" class="st1" points="285.5,305.9 293.8,314.2 293.8,309.6 290.1,305.9 		"/>
		<polygon id="XMLID_161_" class="st1" points="225.3,241.1 225.3,242.6 222.2,242.6 282,302.3 284.3,300 256.6,272.3 256.6,272.4 
			256.6,272.3 228.9,244.7 		"/>
		<polygon id="XMLID_160_" class="st1" points="196.7,206.6 196.7,196.3 186.4,196.3 		"/>
		<polygon id="XMLID_159_" class="st1" points="242.7,231 242.7,228.3 238.3,223.9 234.7,220.3 231,224 228.8,226.1 228.8,221.8 
			228.8,214.4 222.4,208 218.7,211.7 218.4,212.1 202.6,196.3 198,196.3 293.8,292.1 293.8,279.4 244,229.6 		"/>
		<polygon id="XMLID_158_" class="st1" points="256.6,260.7 250.2,254.3 247.2,257.2 256.6,266.5 		"/>
		<polygon id="XMLID_157_" class="st1" points="259.5,269.5 293.8,303.8 293.8,297.9 262.4,266.5 		"/>
		<polygon id="XMLID_156_" class="st1" points="151.4,176.8 148.3,176.8 156.3,184.7 157.8,183.2 		"/>
		
			<rect id="XMLID_155_" x="139.4" y="131.8" transform="matrix(-0.7071 0.7071 -0.7071 -0.7071 340.2866 138.2329)" class="st1" width="4.3" height="15.5"/>
		<polygon id="XMLID_154_" class="st1" points="160.8,155.8 155.9,151 155.9,160.7 		"/>
		<polygon id="XMLID_153_" class="st1" points="289.7,443.1 289.7,429.4 243.3,383 239.2,378.9 239.2,381.3 238.3,381.3 235,381.3 
			233.5,381.3 266.9,414.7 264.2,417.5 267.3,420.6 272.8,420.6 279.2,427 276.4,429.7 		"/>
		<polygon id="XMLID_152_" class="st1" points="228,381.3 238.3,391.6 238.3,390.4 229.2,381.3 		"/>
		<polygon id="XMLID_151_" class="st1" points="129.1,270.8 126.4,268.1 125.7,268.8 104.3,247.4 103.1,247.4 129.1,273.4 
			173.3,317.6 173.3,310.7 167.4,310.7 172.3,305.9 166.9,300.5 162.9,304.6 138.7,280.4 138,281 129.2,272.2 130.5,272.2 		"/>
		<polygon id="XMLID_150_" class="st1" points="179.2,312.8 173.8,318.1 228.7,373 231,370.7 181.5,321.2 184.5,318.1 		"/>
		<polygon id="XMLID_149_" class="st1" points="129.1,295.4 155.9,322.2 154.9,323.3 155.9,324.3 155.9,328.1 161.8,328.1 
			168.2,334.5 167.2,335.5 238.3,406.6 238.3,396.5 209.2,367.4 212.3,364.4 206.9,359 201.1,364.9 201.1,357 195.2,357 200,352.1 
			194.7,346.7 190.6,350.8 141.2,301.4 141.2,290.3 129.1,278.2 96.6,245.7 79.4,245.7 		"/>
		<polygon id="XMLID_148_" class="st1" points="262.4,420.6 261.7,419.9 261,420.6 		"/>
		<polygon id="XMLID_147_" class="st1" points="125.3,217.6 122.6,220.3 129.1,226.7 131.7,229.3 131.7,224.7 129.1,222.1 
			126,219.1 126.4,218.7 		"/>
		<polygon id="XMLID_146_" class="st1" points="285.5,403.2 293.8,411.5 293.8,406.9 290.1,403.2 		"/>
		<polygon id="XMLID_145_" class="st1" points="242.7,328.3 242.7,325.6 234.7,317.6 228.8,323.4 228.8,311.7 222.4,305.3 
			218.4,309.4 202.6,293.6 198,293.6 233,328.6 232,328.6 293.8,390.4 293.8,389.4 293.8,376.7 244,326.9 		"/>
		<polygon id="XMLID_144_" class="st1" points="259.5,366.8 293.8,401.1 293.8,395.2 262.4,363.8 		"/>
		<polygon id="XMLID_143_" class="st1" points="196.7,303.9 196.7,293.6 186.4,293.6 		"/>
		<polygon id="XMLID_142_" class="st1" points="256.6,358 250.2,351.6 247.2,354.5 256.6,363.8 		"/>
		<polygon id="XMLID_141_" class="st1" points="183.7,276.7 183.7,284.9 187.8,280.8 		"/>
		
			<rect id="XMLID_140_" x="128.1" y="248.9" transform="matrix(0.7071 0.7071 -0.7071 0.7071 222.635 -36.3663)" class="st1" width="54.2" height="3.3"/>
		<polygon id="XMLID_139_" class="st1" points="153.8,265.3 157.8,261.2 151.4,254.8 139.7,254.8 145.5,249 137.1,240.6 
			137.1,239.6 132.5,235 131.7,235.8 131.7,234.2 129.1,231.6 98.7,201.1 81.4,201.1 100.4,220.1 97.4,223.2 100.2,226 106.3,226 
			112.7,232.4 109.6,235.4 129.1,254.9 196.7,322.4 201,326.8 205,322.7 211.4,329.1 211.4,339.2 212.2,340 217.3,335 234.2,351.9 
			282,399.7 284.3,397.4 256.6,369.7 256.6,369.7 256.6,369.6 234.2,347.3 234.2,345.8 		"/>
		<polygon id="XMLID_138_" class="st1" points="261.7,517.2 245.4,500.9 242.7,503.6 242.7,498.2 238.3,493.8 209.2,464.7 
			212.3,461.7 206.9,456.3 201.1,462.2 201.1,454.3 195.2,454.3 200,449.4 194.7,444.1 190.6,448.1 141.2,398.7 141.2,389.3 
			129.1,389.3 126.4,389.3 125.3,388.2 124.9,388.6 129.1,392.7 131.7,395.3 137.2,400.8 155.9,419.6 154.9,420.6 155.9,421.6 
			155.9,425.4 161.8,425.4 168.2,431.8 167.2,432.8 203.3,469 197.2,469 289.7,561.5 289.7,561.5 289.7,561.5 289.7,545.2 
			262.4,517.9 		"/>
		<polygon id="XMLID_137_" class="st1" points="184.5,415.4 179.2,410.1 173.8,415.4 228.7,470.3 231,468 181.5,418.5 		"/>
		<polygon id="XMLID_136_" class="st1" points="173.3,414.9 173.3,408 167.4,408 172.3,403.2 166.9,397.8 162.9,401.9 138.7,377.7 
			138,378.4 129.2,369.5 130.5,369.5 129.1,368.1 126.4,365.4 125.7,366.1 104.3,344.7 103.1,344.7 129.1,370.7 		"/>
		<polygon id="XMLID_135_" class="st1" points="238.3,481.8 238.3,478.6 234.1,478.6 236.2,480.8 235.9,481 242.7,487.8 
			248.2,493.3 266.9,512 264.9,514.1 248.5,497.7 247.8,498.5 264.2,514.8 267.3,517.9 276.4,527.1 289.7,540.4 289.7,526.7 
			244.8,481.8 		"/>
		<polygon id="XMLID_134_" class="st1" points="238.3,488.9 242.7,493.3 242.7,491.9 236.3,485.5 236.2,485.6 229.2,478.6 
			228,478.6 		"/>
		<polygon id="XMLID_133_" class="st1" points="183.7,374.3 184,374.3 183.7,374 		"/>
		<polygon id="XMLID_132_" class="st1" points="243.3,437.2 293.8,487.7 293.8,486.7 293.8,482.1 248.9,437.2 		"/>
		<polygon id="XMLID_131_" class="st1" points="193.2,383.5 191.9,384.8 233,425.9 232,425.9 234.2,428.1 234.2,424.6 229.6,420 
			228.8,420.8 228.8,419.2 		"/>
		<polygon id="XMLID_130_" class="st1" points="285.5,500.5 293.8,508.8 293.8,504.2 290.1,500.5 		"/>
		<polygon id="XMLID_129_" class="st1" points="259.5,464.1 293.8,498.4 293.8,492.5 262.4,461.1 		"/>
		<polygon id="XMLID_128_" class="st1" points="256.6,455.3 250.2,448.9 247.2,451.8 256.6,461.1 		"/>
		<polygon id="XMLID_127_" class="st1" points="234.2,443.1 153.8,362.6 154.8,361.6 145.3,352.2 139.7,352.2 142.5,349.3 
			137.9,344.7 129.1,344.7 121.6,344.7 129.1,352.2 201,424.1 205,420 211.4,426.4 211.4,436.5 212.2,437.3 217.3,432.3 
			234.2,449.2 282,497 284.3,494.7 256.6,467 256.6,467 256.6,466.9 234.2,444.6 		"/>
	</g>
</g>
<g>
	<g>
		<polygon id="XMLID_126_" class="st2" points="324.7,181.8 328.8,177.7 328.8,185 328.8,185.9 328.8,185.9 327.9,185 		"/>
		<polygon id="XMLID_125_" class="st2" points="438.9,59.5 450.1,48.4 453.7,44.7 453.7,46.2 459.6,46.2 455.3,50.5 458,53.2 
			438.9,72.2 418.6,92.5 339.3,171.9 337,169.6 386.5,120 382.4,116 388.8,109.6 400.6,109.6 394.7,103.7 405.9,92.5 425.5,73 
			428.3,73 426.9,71.5 		"/>
		<polygon id="XMLID_124_" class="st2" points="307,219.5 305.6,219.5 306.3,218.8 		"/>
		<polygon id="XMLID_123_" class="st2" points="331.8,206.4 353.2,185 361.1,177.1 362.6,178.7 356.3,185 329.7,211.6 325.3,216 
			325.3,212.7 331.7,206.3 		"/>
		<polygon id="XMLID_122_" class="st2" points="321.1,220.2 278.3,263 278.3,259.8 319.5,218.6 		"/>
		<polygon id="XMLID_121_" class="st2" points="437.5,90.3 438.9,88.9 441.6,86.2 444.3,88.9 442.8,90.3 438.9,90.3 		"/>
		<polygon id="XMLID_120_" class="st2" points="358.8,166.3 356.1,163.6 363.9,155.8 372.8,155.8 368.4,151.4 388.8,130.9 
			394.7,136.8 394.7,125 401.1,118.6 405.1,122.7 429.3,98.5 431.6,100.8 390.5,141.9 391.5,141.9 348.4,185 329.7,203.7 
			329.7,202.7 329.7,195.3 340.1,185 		"/>
		<polygon id="XMLID_119_" class="st2" points="366.9,171.3 373.3,164.9 374.9,166.4 366.9,174.3 		"/>
		<polygon id="XMLID_118_" class="st2" points="438.9,53.7 424,68.6 422.5,67.1 430.9,58.7 430.9,57.7 438.9,49.7 488.6,0 492.6,0 
					"/>
		<polygon id="XMLID_117_" class="st2" points="282.5,202.1 274.2,210.3 274.2,205.7 277.9,202.1 		"/>
		<polygon id="XMLID_116_" class="st2" points="289.2,185 274.2,199.9 274.2,185 274.2,178.5 301.2,151.5 316.7,151.5 317.8,150.4 
			319,151.5 322.6,151.5 289.2,185 		"/>
		<polygon id="XMLID_115_" class="st2" points="371.3,92.5 371.3,92.5 381.6,92.5 371.3,102.8 		"/>
		<polygon id="XMLID_114_" class="st2" points="371.3,121.3 367,125.6 363,121.6 356.6,128 356.6,136.3 354.9,138 350.7,133.8 
			333.8,150.8 333,151.5 299.5,185 286,198.5 283.7,196.2 295,185 295,185 333.8,146.2 333.8,145.4 380.2,99 384.3,94.9 384.3,97.3 
			395.3,97.3 		"/>
		<polygon id="XMLID_113_" class="st2" points="394.8,89 392.5,86.7 438.9,40.3 442,37.2 438.9,34.1 437.9,33.1 438.9,32.1 
			444.3,26.7 456.1,26.7 450.2,20.9 471.1,0 483.8,0 438.9,44.9 		"/>
		<polygon id="XMLID_112_" class="st2" points="416.6,73 419.7,73 411.7,80.9 410.2,79.4 		"/>
		<polygon id="XMLID_111_" class="st2" points="436.3,29 436.3,22.9 438.9,20.3 442.7,16.5 445.7,19.5 438.9,26.4 		"/>
		<polygon id="XMLID_110_" class="st2" points="412.1,47.2 412.1,56.8 407.2,52 		"/>
		<polygon id="XMLID_109_" class="st2" points="422.5,42.8 419.5,39.7 430.5,28.8 433.5,31.8 426.8,38.4 		"/>
		<polygon id="XMLID_108_" class="st2" points="278.3,325.6 324.7,279.1 328.8,275 328.8,277.5 329.7,277.5 340,277.5 329.7,287.8 
			329.7,282.3 301.1,310.9 303.8,313.7 300.7,316.8 295.2,316.8 288.8,323.2 291.6,325.9 278.3,339.2 		"/>
		<polygon id="XMLID_107_" class="st2" points="382.4,213.3 388.8,206.9 400.6,206.9 394.7,201 410.8,185 425.5,170.3 428.3,170.3 
			426.9,168.8 438.9,156.8 450.1,145.7 453.7,142.1 453.7,143.6 459.6,143.6 455.3,147.8 457.4,149.8 463.7,143.6 464.9,143.6 
			458,150.5 438.9,169.5 423.5,185 339.3,269.2 337,266.9 386.5,217.3 		"/>
		<polygon id="XMLID_106_" class="st2" points="445.5,185 438.9,191.6 412.1,218.4 413.1,219.4 412.1,220.4 412.1,224.3 
			406.2,224.3 399.8,230.7 400.8,231.7 388.5,244 329.7,302.8 329.7,292.6 358.8,263.6 354.7,259.5 361.1,253.1 372.8,253.1 
			367,247.3 370.2,244 372.2,244 373.3,242.9 374.5,244 380.3,244 426.8,197.5 426.8,186.5 428.3,185 438.9,174.4 471.4,141.9 
			488.6,141.9 		"/>
		<polygon id="XMLID_105_" class="st2" points="307,316.8 305.6,316.8 306.3,316.1 		"/>
		<polygon id="XMLID_104_" class="st2" points="321.1,317.5 278.3,360.3 278.3,357.1 319.5,315.9 		"/>
		<polygon id="XMLID_103_" class="st2" points="333.4,305.2 325.3,313.3 325.3,310 331.7,303.6 		"/>
		<polygon id="XMLID_102_" class="st2" points="438.9,151 424,166 422.5,164.4 438.9,148 481.6,105.3 484.6,105.3 		"/>
		<polygon id="XMLID_101_" class="st2" points="483.8,97.3 438.9,142.2 396.1,185 394.8,186.3 393.5,185 392.5,184 438.9,137.6 
			442,134.5 438.9,131.4 437.9,130.4 438.9,129.5 444.3,124 456.1,124 450.2,118.2 471.1,97.3 		"/>
		<polygon id="XMLID_100_" class="st2" points="438.9,123.7 436.3,126.3 436.3,120.2 438.9,117.6 442.7,113.8 445.7,116.8 		"/>
		<polygon id="XMLID_99_" class="st2" points="282.5,299.4 274.2,307.6 274.2,303 277.9,299.4 		"/>
		<polygon id="XMLID_98_" class="st2" points="342.7,234.5 342.7,236 345.8,236 286,295.8 283.7,293.5 311.4,265.8 311.4,265.9 
			311.4,265.8 339.1,238.2 		"/>
		<polygon id="XMLID_97_" class="st2" points="371.3,200.1 371.3,189.8 381.6,189.8 		"/>
		<polygon id="XMLID_96_" class="st2" points="325.3,224.4 325.3,221.8 329.7,217.4 333.3,213.8 337,217.4 339.2,219.6 339.2,215.3 
			339.2,207.9 345.6,201.5 349.3,205.2 349.6,205.5 365.4,189.8 370,189.8 274.2,285.6 274.2,272.9 324,223.1 		"/>
		<polygon id="XMLID_95_" class="st2" points="311.4,254.1 317.8,247.7 320.8,250.7 311.4,260 		"/>
		<polygon id="XMLID_94_" class="st2" points="308.5,262.9 274.2,297.2 274.2,291.4 305.6,260 		"/>
		<polygon id="XMLID_93_" class="st2" points="416.6,170.3 419.7,170.3 411.7,178.2 410.2,176.7 		"/>
		
			<rect id="XMLID_92_" x="424.3" y="125.3" transform="matrix(0.7071 0.7071 -0.7071 0.7071 219.0069 -262.5967)" class="st2" width="4.3" height="15.5"/>
		<polygon id="XMLID_91_" class="st2" points="407.2,149.3 412.1,144.5 412.1,154.1 		"/>
		<polygon id="XMLID_90_" class="st2" points="278.3,436.5 278.3,422.9 324.7,376.4 328.8,372.3 328.8,374.8 329.7,374.8 333,374.8 
			334.5,374.8 301.1,408.2 303.8,411 300.7,414.1 295.2,414.1 288.8,420.5 291.6,423.2 		"/>
		<polygon id="XMLID_89_" class="st2" points="340,374.8 329.7,385.1 329.7,383.9 338.8,374.8 		"/>
		<polygon id="XMLID_88_" class="st2" points="438.9,264.3 441.6,261.6 442.3,262.3 463.7,240.9 464.9,240.9 438.9,266.8 
			394.7,311.1 394.7,304.2 400.6,304.2 395.7,299.4 401.1,294 405.1,298 429.3,273.9 430,274.5 438.8,265.7 437.5,265.7 		"/>
		<polygon id="XMLID_87_" class="st2" points="388.8,306.2 394.2,311.6 339.3,366.5 337,364.2 386.5,314.7 383.5,311.6 		"/>
		<polygon id="XMLID_86_" class="st2" points="438.9,288.9 412.1,315.7 413.1,316.7 412.1,317.8 412.1,321.6 406.2,321.6 399.8,328 
			400.8,329 329.7,400.1 329.7,389.9 358.8,360.9 355.7,357.9 361.1,352.5 366.9,358.3 366.9,350.4 372.8,350.4 368,345.6 
			373.3,340.2 377.4,344.3 426.8,294.8 426.8,283.8 438.9,271.7 471.4,239.2 488.6,239.2 		"/>
		<polygon id="XMLID_85_" class="st2" points="305.6,414.1 306.3,413.4 307,414.1 		"/>
		<polygon id="XMLID_84_" class="st2" points="442.7,211.1 445.4,213.8 438.9,220.2 436.3,222.8 436.3,218.2 438.9,215.6 442,212.5 
			441.6,212.2 		"/>
		<polygon id="XMLID_83_" class="st2" points="282.5,396.7 274.2,404.9 274.2,400.3 277.9,396.7 		"/>
		<polygon id="XMLID_82_" class="st2" points="325.3,321.7 325.3,319.1 333.3,311.1 339.2,316.9 339.2,305.2 345.6,298.8 
			349.6,302.8 365.4,287.1 370,287.1 335,322.1 336,322.1 274.2,383.8 274.2,382.9 274.2,370.2 324,320.4 		"/>
		<polygon id="XMLID_81_" class="st2" points="308.5,360.2 274.2,394.5 274.2,388.7 305.6,357.3 		"/>
		<polygon id="XMLID_80_" class="st2" points="371.3,297.4 371.3,287.1 381.6,287.1 		"/>
		<polygon id="XMLID_79_" class="st2" points="311.4,351.4 317.8,345 320.8,348 311.4,357.3 		"/>
		<polygon id="XMLID_78_" class="st2" points="384.3,270.2 384.3,278.4 380.2,274.3 		"/>
		
			<rect id="XMLID_77_" x="385.7" y="242.4" transform="matrix(-0.7071 0.7071 -0.7071 -0.7071 877.2263 124.7115)" class="st2" width="54.2" height="3.3"/>
		<polygon id="XMLID_76_" class="st2" points="414.2,258.8 410.2,254.7 416.6,248.3 428.3,248.3 422.5,242.5 430.9,234 430.9,233.1 
			435.5,228.4 436.3,229.2 436.3,227.7 438.9,225 469.3,194.6 486.6,194.6 467.6,213.6 470.6,216.6 467.8,219.5 461.7,219.5 
			455.3,225.9 458.4,228.9 438.9,248.3 371.3,315.9 367,320.2 363,316.2 356.6,322.6 356.6,332.7 355.8,333.5 350.7,328.4 
			333.8,345.4 286,393.1 283.7,390.8 311.4,363.1 311.4,363.2 311.4,363.1 333.8,340.8 333.8,339.3 		"/>
		<polygon id="XMLID_75_" class="st2" points="306.3,510.7 322.6,494.4 325.3,497.1 325.3,491.6 329.7,487.3 358.8,458.2 
			355.7,455.2 361.1,449.8 366.9,455.7 366.9,447.8 372.8,447.8 368,442.9 373.3,437.5 377.4,441.6 426.8,392.2 426.8,382.8 
			438.9,382.8 441.6,382.8 442.7,381.7 443.1,382 438.9,386.2 436.3,388.8 430.8,394.3 412.1,413 413.1,414 412.1,415.1 
			412.1,418.9 406.2,418.9 399.8,425.3 400.8,426.3 364.7,462.5 370.8,462.5 278.3,554.9 278.3,554.9 278.3,554.9 278.3,538.7 
			305.6,511.4 		"/>
		<polygon id="XMLID_74_" class="st2" points="383.5,408.9 388.8,403.5 394.2,408.9 339.3,463.8 337,461.5 386.5,412 		"/>
		<polygon id="XMLID_73_" class="st2" points="394.7,408.4 394.7,401.5 400.6,401.5 395.7,396.7 401.1,391.3 405.1,395.3 
			429.3,371.2 430,371.8 438.8,363 437.5,363 438.9,361.6 441.6,358.9 442.3,359.6 463.7,338.2 464.9,338.2 438.9,364.1 		"/>
		<polygon id="XMLID_72_" class="st2" points="329.7,475.3 329.7,472.1 333.9,472.1 331.8,474.2 332.1,474.5 325.3,481.3 
			319.8,486.8 301.1,505.5 303.1,507.6 319.5,491.2 320.2,491.9 303.8,508.3 300.7,511.4 291.6,520.5 278.3,533.8 278.3,520.2 
			323.2,475.3 		"/>
		<polygon id="XMLID_71_" class="st2" points="329.7,482.4 325.3,486.8 325.3,485.4 331.7,479 331.8,479.1 338.8,472.1 340,472.1 		
			"/>
		<polygon id="XMLID_70_" class="st2" points="384.3,367.8 384,367.8 384.3,367.5 		"/>
		<polygon id="XMLID_69_" class="st2" points="324.7,430.7 274.2,481.1 274.2,480.2 274.2,475.6 319.1,430.7 		"/>
		<polygon id="XMLID_68_" class="st2" points="374.8,377 376.1,378.3 335,419.4 336,419.4 333.8,421.6 333.8,418.1 338.4,413.4 
			339.2,414.2 339.2,412.6 		"/>
		<polygon id="XMLID_67_" class="st2" points="282.5,494 274.2,502.2 274.2,497.6 277.9,494 		"/>
		<polygon id="XMLID_66_" class="st2" points="308.5,457.5 274.2,491.8 274.2,486 305.6,454.6 		"/>
		<polygon id="XMLID_65_" class="st2" points="311.4,448.8 317.8,442.3 320.8,445.3 311.4,454.6 		"/>
		<polygon id="XMLID_64_" class="st2" points="333.8,436.6 414.2,356.1 413.2,355.1 422.7,345.6 428.3,345.6 425.5,342.8 
			430.1,338.2 438.9,338.2 446.4,338.2 438.9,345.6 367,417.5 363,413.5 356.6,419.9 356.6,430 355.8,430.8 350.7,425.7 
			333.8,442.7 286,490.4 283.7,488.1 311.4,460.4 311.4,460.5 311.4,460.4 333.8,438.1 		"/>
	</g>
	<g>
		<polygon id="XMLID_63_" class="st2" points="223.7,181.8 219.6,177.7 219.6,185 219.6,185.9 219.6,185.9 220.5,185 		"/>
		<polygon id="XMLID_62_" class="st2" points="109.5,59.5 98.4,48.4 94.7,44.7 94.7,46.2 88.8,46.2 93.1,50.5 90.4,53.2 109.5,72.2 
			129.8,92.5 209.1,171.9 211.4,169.6 161.9,120 166,116 159.6,109.6 147.9,109.6 153.7,103.7 142.5,92.5 123,73 120.1,73 
			121.5,71.5 		"/>
		<polygon id="XMLID_61_" class="st2" points="241.5,219.5 242.8,219.5 242.2,218.8 		"/>
		<polygon id="XMLID_60_" class="st2" points="216.6,206.4 195.2,185 187.3,177.1 185.8,178.7 192.1,185 218.7,211.6 223.1,216 
			223.1,212.7 216.7,206.3 		"/>
		<polygon id="XMLID_59_" class="st2" points="227.3,220.2 270.2,263 270.2,259.8 229,218.6 		"/>
		<polygon id="XMLID_58_" class="st2" points="110.9,90.3 109.5,88.9 106.8,86.2 104.2,88.9 105.6,90.3 109.5,90.3 		"/>
		<polygon id="XMLID_57_" class="st2" points="189.7,166.3 192.3,163.6 184.5,155.8 175.6,155.8 180.1,151.4 159.6,130.9 
			153.7,136.8 153.7,125 147.3,118.6 143.3,122.7 119.1,98.5 116.8,100.8 157.9,141.9 157,141.9 200,185 218.7,203.7 218.7,202.7 
			218.7,195.3 208.4,185 		"/>
		<polygon id="XMLID_56_" class="st2" points="181.5,171.3 175.1,164.9 173.5,166.4 181.5,174.3 		"/>
		<polygon id="XMLID_55_" class="st2" points="109.5,53.7 124.4,68.6 126,67.1 117.5,58.7 117.5,57.7 109.5,49.7 59.8,0 55.8,0 		
			"/>
		<polygon id="XMLID_54_" class="st2" points="266,202.1 274.2,210.3 274.2,205.7 270.6,202.1 		"/>
		<polygon id="XMLID_53_" class="st2" points="259.3,185 274.2,199.9 274.2,185 274.2,178.5 247.2,151.5 231.7,151.5 230.6,150.4 
			229.5,151.5 225.8,151.5 259.3,185 		"/>
		<polygon id="XMLID_52_" class="st2" points="177.1,92.5 177.1,92.5 166.8,92.5 177.1,102.8 		"/>
		<polygon id="XMLID_51_" class="st2" points="177.1,121.3 181.4,125.6 185.5,121.6 191.9,128 191.9,136.3 193.6,138 197.7,133.8 
			214.7,150.8 215.4,151.5 248.9,185 262.4,198.5 264.7,196.2 253.5,185 253.5,185 214.7,146.2 214.7,145.4 168.2,99 164.1,94.9 
			164.1,97.3 153.1,97.3 		"/>
		<polygon id="XMLID_50_" class="st2" points="153.6,89 155.9,86.7 109.5,40.3 106.4,37.2 109.5,34.1 110.5,33.1 109.5,32.1 
			104.1,26.7 92.4,26.7 98.2,20.9 77.4,0 64.7,0 109.5,44.9 		"/>
		<polygon id="XMLID_49_" class="st2" points="131.8,73 128.8,73 136.7,80.9 138.2,79.4 		"/>
		<polygon id="XMLID_48_" class="st2" points="112.1,29 112.1,22.9 109.5,20.3 105.7,16.5 102.7,19.5 109.5,26.4 		"/>
		<polygon id="XMLID_47_" class="st2" points="136.4,47.2 136.4,56.8 141.2,52 		"/>
		<polygon id="XMLID_46_" class="st2" points="125.9,42.8 128.9,39.7 118,28.8 114.9,31.8 121.6,38.4 		"/>
		<polygon id="XMLID_45_" class="st2" points="270.2,325.6 223.7,279.1 219.6,275 219.6,277.5 218.7,277.5 208.4,277.5 218.7,287.8 
			218.7,282.3 247.3,310.9 244.6,313.7 247.7,316.8 253.2,316.8 259.6,323.2 256.8,325.9 270.2,339.2 		"/>
		<polygon id="XMLID_44_" class="st2" points="166,213.3 159.6,206.9 147.9,206.9 153.7,201 137.7,185 123,170.3 120.1,170.3 
			121.5,168.8 109.5,156.8 98.4,145.7 94.7,142.1 94.7,143.6 88.8,143.6 93.1,147.8 91.1,149.8 84.8,143.6 83.5,143.6 90.4,150.5 
			109.5,169.5 125,185 209.1,269.2 211.4,266.9 161.9,217.3 		"/>
		<polygon id="XMLID_43_" class="st2" points="102.9,185 109.5,191.6 136.3,218.4 135.3,219.4 136.4,220.4 136.4,224.3 142.2,224.3 
			148.6,230.7 147.6,231.7 159.9,244 218.7,302.8 218.7,292.6 189.7,263.6 193.7,259.5 187.3,253.1 175.6,253.1 181.5,247.3 
			178.2,244 176.2,244 175.1,242.9 174,244 168.1,244 121.6,197.5 121.6,186.5 120.1,185 109.5,174.4 77,141.9 59.8,141.9 		"/>
		<polygon id="XMLID_42_" class="st2" points="241.5,316.8 242.8,316.8 242.2,316.1 		"/>
		<polygon id="XMLID_41_" class="st2" points="227.3,317.5 270.2,360.3 270.2,357.1 229,315.9 		"/>
		<polygon id="XMLID_40_" class="st2" points="215.1,305.2 223.1,313.3 223.1,310 216.7,303.6 		"/>
		<polygon id="XMLID_39_" class="st2" points="109.5,151 124.4,166 126,164.4 109.5,148 66.8,105.3 63.8,105.3 		"/>
		<polygon id="XMLID_38_" class="st2" points="64.7,97.3 109.5,142.2 152.3,185 153.6,186.3 155,185 155.9,184 109.5,137.6 
			106.4,134.5 109.5,131.4 110.5,130.4 109.5,129.5 104.1,124 92.4,124 98.2,118.2 77.4,97.3 		"/>
		<polygon id="XMLID_37_" class="st2" points="109.5,123.7 112.1,126.3 112.1,120.2 109.5,117.6 105.7,113.8 102.7,116.8 		"/>
		<polygon id="XMLID_36_" class="st2" points="266,299.4 274.2,307.6 274.2,303 270.6,299.4 		"/>
		<polygon id="XMLID_35_" class="st2" points="205.7,234.5 205.7,236 202.6,236 262.4,295.8 264.7,293.5 237,265.8 237,265.9 
			237,265.8 209.4,238.2 		"/>
		<polygon id="XMLID_34_" class="st2" points="177.1,200.1 177.1,189.8 166.8,189.8 		"/>
		<polygon id="XMLID_33_" class="st2" points="223.1,224.4 223.1,221.8 218.7,217.4 215.1,213.8 211.4,217.4 209.2,219.6 
			209.2,215.3 209.2,207.9 202.8,201.5 199.1,205.2 198.8,205.5 183,189.8 178.4,189.8 274.2,285.6 274.2,272.9 224.4,223.1 		"/>
		<polygon id="XMLID_32_" class="st2" points="237,254.1 230.6,247.7 227.6,250.7 237,260 		"/>
		<polygon id="XMLID_31_" class="st2" points="239.9,262.9 274.2,297.2 274.2,291.4 242.8,260 		"/>
		<polygon id="XMLID_30_" class="st2" points="131.8,170.3 128.8,170.3 136.7,178.2 138.2,176.7 		"/>
		
			<rect id="XMLID_29_" x="119.8" y="125.3" transform="matrix(-0.7071 0.7071 -0.7071 -0.7071 302.2516 140.936)" class="st2" width="4.3" height="15.5"/>
		<polygon id="XMLID_28_" class="st2" points="141.2,149.3 136.4,144.5 136.4,154.1 		"/>
		<polygon id="XMLID_27_" class="st2" points="270.2,436.5 270.2,422.9 223.7,376.4 219.6,372.3 219.6,374.8 218.7,374.8 
			215.4,374.8 213.9,374.8 247.3,408.2 244.6,411 247.7,414.1 253.2,414.1 259.6,420.5 256.8,423.2 		"/>
		<polygon id="XMLID_26_" class="st2" points="208.4,374.8 218.7,385.1 218.7,383.9 209.6,374.8 		"/>
		<polygon id="XMLID_25_" class="st2" points="109.5,264.3 106.8,261.6 106.2,262.3 84.8,240.9 83.5,240.9 109.5,266.8 153.7,311.1 
			153.7,304.2 147.9,304.2 152.7,299.4 147.3,294 143.3,298 119.1,273.9 118.4,274.5 109.6,265.7 110.9,265.7 		"/>
		<polygon id="XMLID_24_" class="st2" points="159.6,306.2 154.3,311.6 209.1,366.5 211.4,364.2 161.9,314.7 165,311.6 		"/>
		<polygon id="XMLID_23_" class="st2" points="109.5,288.9 136.3,315.7 135.3,316.7 136.4,317.8 136.4,321.6 142.2,321.6 148.6,328 
			147.6,329 218.7,400.1 218.7,389.9 189.7,360.9 192.7,357.9 187.3,352.5 181.5,358.3 181.5,350.4 175.6,350.4 180.5,345.6 
			175.1,340.2 171,344.3 121.6,294.8 121.6,283.8 109.5,271.7 77,239.2 59.8,239.2 		"/>
		<polygon id="XMLID_22_" class="st2" points="242.8,414.1 242.2,413.4 241.5,414.1 		"/>
		<polygon id="XMLID_21_" class="st2" points="105.7,211.1 103.1,213.8 109.5,220.2 112.1,222.8 112.1,218.2 109.5,215.6 
			106.4,212.5 106.8,212.2 		"/>
		<polygon id="XMLID_20_" class="st2" points="266,396.7 274.2,404.9 274.2,400.3 270.6,396.7 		"/>
		<polygon id="XMLID_19_" class="st2" points="223.1,321.7 223.1,319.1 215.1,311.1 209.2,316.9 209.2,305.2 202.8,298.8 
			198.8,302.8 183,287.1 178.4,287.1 213.4,322.1 212.5,322.1 274.2,383.8 274.2,382.9 274.2,370.2 224.4,320.4 		"/>
		<polygon id="XMLID_18_" class="st2" points="239.9,360.2 274.2,394.5 274.2,388.7 242.8,357.3 		"/>
		<polygon id="XMLID_17_" class="st2" points="177.1,297.4 177.1,287.1 166.8,287.1 		"/>
		<polygon id="XMLID_16_" class="st2" points="237,351.4 230.6,345 227.6,348 237,357.3 		"/>
		<polygon id="XMLID_15_" class="st2" points="164.1,270.2 164.1,278.4 168.2,274.3 		"/>
		
			<rect id="XMLID_14_" x="108.5" y="242.4" transform="matrix(0.7071 0.7071 -0.7071 0.7071 212.2865 -24.4344)" class="st2" width="54.2" height="3.3"/>
		<polygon id="XMLID_13_" class="st2" points="134.2,258.8 138.2,254.7 131.8,248.3 120.1,248.3 126,242.5 117.5,234 117.5,233.1 
			112.9,228.4 112.1,229.2 112.1,227.7 109.5,225 79.1,194.6 61.9,194.6 80.8,213.6 77.8,216.6 80.6,219.5 86.7,219.5 93.1,225.9 
			90.1,228.9 109.5,248.3 177.1,315.9 181.4,320.2 185.5,316.2 191.9,322.6 191.9,332.7 192.6,333.5 197.7,328.4 214.7,345.4 
			262.4,393.1 264.7,390.8 237,363.1 237,363.2 237,363.1 214.7,340.8 214.7,339.3 		"/>
		<polygon id="XMLID_12_" class="st2" points="242.2,510.7 225.8,494.4 223.1,497.1 223.1,491.6 218.7,487.3 189.7,458.2 
			192.7,455.2 187.3,449.8 181.5,455.7 181.5,447.8 175.6,447.8 180.5,442.9 175.1,437.5 171,441.6 121.6,392.2 121.6,382.8 
			109.5,382.8 106.8,382.8 105.7,381.7 105.3,382 109.5,386.2 112.1,388.8 117.6,394.3 136.3,413 135.3,414 136.4,415.1 
			136.4,418.9 142.2,418.9 148.6,425.3 147.6,426.3 183.7,462.5 177.7,462.5 270.2,554.9 270.2,554.9 270.2,554.9 270.2,538.7 
			242.8,511.4 		"/>
		<polygon id="XMLID_11_" class="st2" points="165,408.9 159.6,403.5 154.3,408.9 209.1,463.8 211.4,461.5 161.9,412 		"/>
		<polygon id="XMLID_10_" class="st2" points="153.7,408.4 153.7,401.5 147.9,401.5 152.7,396.7 147.3,391.3 143.3,395.3 
			119.1,371.2 118.4,371.8 109.6,363 110.9,363 109.5,361.6 106.8,358.9 106.2,359.6 84.8,338.2 83.5,338.2 109.5,364.1 		"/>
		<polygon id="XMLID_9_" class="st2" points="218.7,475.3 218.7,472.1 214.5,472.1 216.6,474.2 216.3,474.5 223.1,481.3 
			228.6,486.8 247.3,505.5 245.3,507.6 229,491.2 228.2,491.9 244.6,508.3 247.7,511.4 256.8,520.5 270.2,533.8 270.2,520.2 
			225.2,475.3 		"/>
		<polygon id="XMLID_8_" class="st2" points="218.7,482.4 223.1,486.8 223.1,485.4 216.7,479 216.6,479.1 209.6,472.1 208.4,472.1 
					"/>
		<polygon id="XMLID_7_" class="st2" points="164.1,367.8 164.4,367.8 164.1,367.5 		"/>
		<polygon id="XMLID_6_" class="st2" points="223.7,430.7 274.2,481.1 274.2,480.2 274.2,475.6 229.3,430.7 		"/>
		<polygon id="XMLID_5_" class="st2" points="173.6,377 172.3,378.3 213.4,419.4 212.5,419.4 214.7,421.6 214.7,418.1 210,413.4 
			209.2,414.2 209.2,412.6 		"/>
		<polygon id="XMLID_4_" class="st2" points="266,494 274.2,502.2 274.2,497.6 270.6,494 		"/>
		<polygon id="XMLID_3_" class="st2" points="239.9,457.5 274.2,491.8 274.2,486 242.8,454.6 		"/>
		<polygon id="XMLID_2_" class="st2" points="237,448.8 230.6,442.3 227.6,445.3 237,454.6 		"/>
		<polygon id="XMLID_1_" class="st2" points="214.7,436.6 134.2,356.1 135.2,355.1 125.7,345.6 120.1,345.6 122.9,342.8 
			118.3,338.2 109.5,338.2 102,338.2 109.5,345.6 181.4,417.5 185.5,413.5 191.9,419.9 191.9,430 192.6,430.8 197.7,425.7 
			214.7,442.7 262.4,490.4 264.7,488.1 237,460.4 237,460.5 237,460.4 214.7,438.1 		"/>
	</g>
</g>
</svg>
